<svg xmlns="http://www.w3.org/2000/svg" width="306" height="203" viewBox="0 0 306 203">
  <g shape-rendering="crispEdges">
    <path d="M87,2.5 h6 M121,2.5 h1 M85,3.5 h5 M93,3.5 h1 M99,3.5 h3 M115,3.5 h1 M84,4.5 h3 M92,4.5 h1 M97,4.5 h2 M100,4.5 h2 M109,4.5 h2 M112,4.5 h1 M114,4.5 h2 M117,4.5 h4 M84,5.5 h2 M97,5.5 h1 M102,5.5 h2 M105,5.5 h1 M107,5.5 h6 M117,5.5 h5 M84,6.5 h1 M97,6.5 h1 M101,6.5 h1 M103,6.5 h2 M106,6.5 h1 M108,6.5 h3 M113,6.5 h3 M117,6.5 h3 M122,6.5 h1 M72,7.5 h1 M77,7.5 h4 M82,7.5 h1 M84,7.5 h1 M97,7.5 h2 M100,7.5 h4 M105,7.5 h1 M107,7.5 h1 M109,7.5 h1 M111,7.5 h1 M115,7.5 h1 M118,7.5 h1 M120,7.5 h2 M123,7.5 h1 M66,8.5 h2 M71,8.5 h3 M75,8.5 h2 M78,8.5 h2 M82,8.5 h1 M89,8.5 h1 M102,8.5 h1 M106,8.5 h2 M111,8.5 h3 M118,8.5 h1 M120,8.5 h5 M65,9.5 h2 M69,9.5 h2 M72,9.5 h4 M78,9.5 h5 M87,9.5 h1 M100,9.5 h1 M107,9.5 h1 M113,9.5 h1 M122,9.5 h4 M128,9.5 h6 M64,10.5 h1 M66,10.5 h11 M87,10.5 h3 M100,10.5 h1 M104,10.5 h1 M123,10.5 h7 M133,10.5 h2 M63,11.5 h1 M66,11.5 h4 M73,11.5 h2 M79,11.5 h1 M88,11.5 h1 M117,11.5 h4 M123,11.5 h5 M134,11.5 h1 M61,12.5 h3 M66,12.5 h1 M68,12.5 h2 M90,12.5 h1 M121,12.5 h1 M135,12.5 h1 M61,13.5 h2 M64,13.5 h4 M69,13.5 h1 M125,13.5 h3 M135,13.5 h1 M60,14.5 h1 M63,14.5 h3 M67,14.5 h2 M127,14.5 h2 M130,14.5 h1 M135,14.5 h1 M59,15.5 h1 M64,15.5 h1 M66,15.5 h1 M110,15.5 h1 M126,15.5 h2 M129,15.5 h3 M135,15.5 h1 M58,16.5 h1 M60,16.5 h1 M62,16.5 h2 M66,16.5 h1 M127,16.5 h1 M132,16.5 h1 M135,16.5 h1 M57,17.5 h1 M59,17.5 h1 M61,17.5 h1 M65,17.5 h1 M127,17.5 h2 M133,17.5 h2 M57,18.5 h1 M60,18.5 h1 M62,18.5 h3 M130,18.5 h3 M58,19.5 h1 M60,19.5 h1 M130,19.5 h3 M56,20.5 h1 M130,20.5 h2 M134,20.5 h1 M55,21.5 h2 M130,21.5 h2 M134,21.5 h1 M54,22.5 h2 M57,22.5 h1 M129,22.5 h3 M133,22.5 h2 M54,23.5 h1 M56,23.5 h2 M128,23.5 h4 M134,23.5 h2 M54,24.5 h4 M129,24.5 h5 M135,24.5 h1 M54,25.5 h2 M57,25.5 h1 M54,26.5 h3 M131,26.5 h2 M135,26.5 h3 M52,27.5 h1 M54,27.5 h2 M133,27.5 h2 M136,27.5 h1 M55,28.5 h1 M57,28.5 h1 M136,28.5 h4 M55,29.5 h1 M139,29.5 h1 M53,30.5 h2 M139,30.5 h2 M52,31.5 h2 M55,31.5 h1 M141,31.5 h2 M51,32.5 h2 M54,32.5 h1 M136,32.5 h1 M144,32.5 h2 M50,33.5 h2 M53,33.5 h1 M141,33.5 h1 M145,33.5 h2 M49,34.5 h2 M146,34.5 h2 M49,35.5 h2 M140,35.5 h2 M145,35.5 h1 M147,35.5 h2 M49,36.5 h1 M141,36.5 h1 M144,36.5 h1 M148,36.5 h2 M49,37.5 h1 M141,37.5 h1 M148,37.5 h2 M145,38.5 h1 M148,38.5 h2 M149,39.5 h1 M149,40.5 h2 M148,41.5 h5 M147,42.5 h7 M147,43.5 h2 M150,43.5 h1 M152,43.5 h1 M144,44.5 h1 M40,45.5 h1 M42,45.5 h3 M47,45.5 h1 M145,45.5 h1 M39,46.5 h1 M41,46.5 h2 M47,46.5 h2 M150,46.5 h2 M38,47.5 h1 M40,47.5 h1 M47,47.5 h2 M150,47.5 h1 M152,47.5 h1 M37,48.5 h5 M45,48.5 h1 M47,48.5 h2 M38,49.5 h4 M45,49.5 h3 M152,49.5 h1 M38,50.5 h6 M45,50.5 h1 M47,50.5 h1 M50,50.5 h1 M38,51.5 h1 M40,51.5 h3 M44,51.5 h2 M49,51.5 h1 M39,52.5 h1 M42,52.5 h2 M49,52.5 h1 M125,52.5 h2 M145,52.5 h1 M147,52.5 h1 M40,53.5 h1 M45,53.5 h2 M48,53.5 h1 M125,53.5 h2 M43,54.5 h1 M126,54.5 h1 M44,55.5 h4 M49,55.5 h1 M44,56.5 h2 M47,56.5 h2 M148,56.5 h1 M145,57.5 h1 M147,57.5 h1 M149,57.5 h1 M45,58.5 h1 M145,58.5 h2 M148,58.5 h1 M154,58.5 h1 M46,59.5 h1 M129,59.5 h1 M147,59.5 h4 M154,59.5 h1 M129,60.5 h1 M146,60.5 h1 M153,60.5 h1 M43,61.5 h1 M130,61.5 h1 M147,61.5 h1 M153,61.5 h1 M130,62.5 h1 M45,63.5 h1 M47,63.5 h1 M130,63.5 h2 M149,63.5 h1 M46,64.5 h1 M127,64.5 h2 M131,64.5 h1 M151,64.5 h1 M108,65.5 h1 M128,65.5 h4 M42,66.5 h1 M108,66.5 h2 M128,66.5 h1 M130,66.5 h3 M109,67.5 h2 M128,67.5 h2 M131,67.5 h2 M41,68.5 h1 M109,68.5 h2 M127,68.5 h4 M132,68.5 h1 M144,68.5 h1 M147,68.5 h1 M109,69.5 h3 M127,69.5 h6 M42,70.5 h1 M109,70.5 h4 M128,70.5 h6 M39,71.5 h2 M42,71.5 h2 M110,71.5 h3 M129,71.5 h5 M40,72.5 h1 M43,72.5 h2 M46,72.5 h1 M110,72.5 h3 M130,72.5 h4 M148,72.5 h1 M40,73.5 h1 M44,73.5 h2 M111,73.5 h3 M131,73.5 h3 M148,73.5 h1 M41,74.5 h1 M46,74.5 h4 M52,74.5 h1 M111,74.5 h6 M131,74.5 h4 M146,74.5 h1 M148,74.5 h1 M42,75.5 h7 M50,75.5 h1 M112,75.5 h5 M133,75.5 h2 M147,75.5 h2 M49,76.5 h1 M113,76.5 h4 M131,76.5 h1 M134,76.5 h1 M145,76.5 h2 M148,76.5 h1 M51,77.5 h1 M113,77.5 h1 M131,77.5 h1 M134,77.5 h1 M52,78.5 h1 M131,78.5 h1 M134,78.5 h1 M138,78.5 h1 M148,78.5 h1 M134,79.5 h1 M148,79.5 h1 M49,80.5 h1 M51,80.5 h2 M138,80.5 h1 M140,81.5 h1 M147,81.5 h1 M51,82.5 h1 M145,82.5 h1 M143,83.5 h1 M146,83.5 h1 M139,84.5 h1 M141,84.5 h1 M144,84.5 h2 M53,85.5 h1 M145,85.5 h1 M53,86.5 h2 M145,86.5 h1 M54,87.5 h1 M118,87.5 h1 M144,87.5 h2 M54,88.5 h1 M56,88.5 h1 M116,88.5 h1 M118,88.5 h2 M145,88.5 h1 M54,89.5 h2 M113,89.5 h2 M116,89.5 h5 M145,89.5 h2 M56,90.5 h2 M113,90.5 h4 M118,90.5 h1 M145,90.5 h3 M54,91.5 h4 M109,91.5 h2 M113,91.5 h2 M116,91.5 h1 M145,91.5 h3 M57,92.5 h1 M113,92.5 h2 M123,92.5 h2 M147,92.5 h1 M59,93.5 h1 M106,93.5 h1 M109,93.5 h1 M122,93.5 h3 M145,93.5 h1 M62,94.5 h1 M120,94.5 h6 M144,94.5 h1 M146,94.5 h1 M120,95.5 h6 M143,95.5 h2 M121,96.5 h5 M142,96.5 h1 M145,96.5 h1 M148,96.5 h1 M152,96.5 h1 M46,97.5 h2 M121,97.5 h5 M135,97.5 h1 M151,97.5 h1 M154,97.5 h1 M156,97.5 h1 M43,98.5 h7 M121,98.5 h1 M123,98.5 h3 M135,98.5 h2 M144,98.5 h1 M153,98.5 h1 M157,98.5 h3 M43,99.5 h3 M48,99.5 h2 M70,99.5 h1 M72,99.5 h1 M122,99.5 h4 M135,99.5 h2 M154,99.5 h5 M164,99.5 h5 M43,100.5 h2 M48,100.5 h3 M123,100.5 h3 M134,100.5 h4 M156,100.5 h5 M162,100.5 h7 M42,101.5 h3 M49,101.5 h3 M65,101.5 h1 M122,101.5 h4 M134,101.5 h4 M160,101.5 h7 M168,101.5 h5 M27,102.5 h9 M41,102.5 h3 M48,102.5 h6 M122,102.5 h4 M135,102.5 h3 M161,102.5 h7 M175,102.5 h4 M25,103.5 h19 M48,103.5 h16 M66,103.5 h3 M122,103.5 h4 M127,103.5 h1 M135,103.5 h2 M162,103.5 h2 M166,103.5 h9 M184,103.5 h3 M23,104.5 h4 M31,104.5 h13 M46,104.5 h19 M66,104.5 h1 M68,104.5 h2 M122,104.5 h6 M134,104.5 h3 M163,104.5 h1 M166,104.5 h19 M188,104.5 h4 M23,105.5 h3 M47,105.5 h5 M53,105.5 h12 M122,105.5 h6 M135,105.5 h2 M168,105.5 h2 M171,105.5 h21 M193,105.5 h2 M22,106.5 h3 M48,106.5 h12 M123,106.5 h5 M169,106.5 h28 M21,107.5 h3 M48,107.5 h8 M123,107.5 h4 M168,107.5 h5 M174,107.5 h25 M17,108.5 h7 M123,108.5 h1 M126,108.5 h1 M167,108.5 h2 M175,108.5 h21 M197,108.5 h3 M202,108.5 h1 M17,109.5 h4 M165,109.5 h2 M172,109.5 h26 M199,109.5 h6 M15,110.5 h4 M164,110.5 h1 M171,110.5 h1 M174,110.5 h1 M177,110.5 h22 M200,110.5 h8 M214,110.5 h1 M14,111.5 h4 M174,111.5 h2 M177,111.5 h23 M201,111.5 h16 M13,112.5 h4 M177,112.5 h4 M183,112.5 h18 M202,112.5 h4 M207,112.5 h10 M13,113.5 h3 M181,113.5 h21 M204,113.5 h2 M215,113.5 h3 M12,114.5 h3 M183,114.5 h1 M185,114.5 h19 M205,114.5 h2 M215,114.5 h3 M9,115.5 h6 M82,115.5 h1 M84,115.5 h1 M186,115.5 h18 M206,115.5 h2 M215,115.5 h7 M8,116.5 h5 M80,116.5 h2 M84,116.5 h1 M188,116.5 h2 M191,116.5 h13 M205,116.5 h4 M216,116.5 h9 M7,117.5 h4 M77,117.5 h4 M186,117.5 h2 M190,117.5 h18 M209,117.5 h1 M218,117.5 h11 M6,118.5 h4 M74,118.5 h6 M190,118.5 h17 M208,118.5 h1 M210,118.5 h1 M224,118.5 h12 M4,119.5 h5 M71,119.5 h6 M78,119.5 h1 M83,119.5 h1 M190,119.5 h19 M211,119.5 h1 M227,119.5 h13 M2,120.5 h5 M70,120.5 h5 M78,120.5 h1 M189,120.5 h21 M211,120.5 h1 M230,120.5 h17 M0,121.5 h5 M70,121.5 h4 M77,121.5 h2 M189,121.5 h22 M212,121.5 h1 M233,121.5 h22 M0,122.5 h3 M68,122.5 h5 M77,122.5 h1 M190,122.5 h21 M236,122.5 h23 M67,123.5 h6 M190,123.5 h4 M196,123.5 h16 M213,123.5 h1 M237,123.5 h27 M57,124.5 h14 M187,124.5 h5 M193,124.5 h7 M201,124.5 h12 M249,124.5 h35 M54,125.5 h17 M188,125.5 h1 M190,125.5 h1 M194,125.5 h2 M197,125.5 h1 M200,125.5 h13 M214,125.5 h1 M224,125.5 h4 M250,125.5 h2 M256,125.5 h31 M52,126.5 h19 M179,126.5 h1 M188,126.5 h3 M192,126.5 h1 M195,126.5 h2 M200,126.5 h14 M224,126.5 h5 M266,126.5 h24 M20,127.5 h6 M29,127.5 h2 M45,127.5 h23 M186,127.5 h1 M189,127.5 h2 M193,127.5 h2 M200,127.5 h12 M213,127.5 h1 M215,127.5 h1 M223,127.5 h7 M278,127.5 h14 M298,127.5 h2 M19,128.5 h14 M42,128.5 h9 M52,128.5 h15 M69,128.5 h1 M193,128.5 h2 M198,128.5 h1 M200,128.5 h15 M216,128.5 h1 M224,128.5 h6 M251,128.5 h1 M280,128.5 h4 M286,128.5 h16 M19,129.5 h14 M36,129.5 h14 M52,129.5 h13 M69,129.5 h1 M177,129.5 h1 M188,129.5 h1 M193,129.5 h1 M197,129.5 h18 M216,129.5 h1 M224,129.5 h6 M251,129.5 h1 M287,129.5 h16 M19,130.5 h6 M29,130.5 h2 M36,130.5 h5 M45,130.5 h4 M53,130.5 h2 M56,130.5 h9 M70,130.5 h1 M186,130.5 h1 M189,130.5 h1 M199,130.5 h16 M225,130.5 h5 M292,130.5 h5 M298,130.5 h7 M18,131.5 h7 M36,131.5 h4 M54,131.5 h10 M186,131.5 h2 M198,131.5 h18 M227,131.5 h1 M299,131.5 h7 M19,132.5 h4 M37,132.5 h3 M54,132.5 h9 M70,132.5 h1 M189,132.5 h2 M198,132.5 h1 M200,132.5 h16 M217,132.5 h1 M301,132.5 h5 M53,133.5 h7 M61,133.5 h2 M185,133.5 h1 M189,133.5 h1 M198,133.5 h1 M200,133.5 h3 M204,133.5 h11 M217,133.5 h1 M303,133.5 h3 M52,134.5 h8 M186,134.5 h1 M188,134.5 h1 M198,134.5 h5 M204,134.5 h2 M207,134.5 h11 M305,134.5 h1 M51,135.5 h8 M195,135.5 h8 M204,135.5 h13 M305,135.5 h1 M50,136.5 h7 M194,136.5 h4 M199,136.5 h2 M202,136.5 h15 M304,136.5 h2 M49,137.5 h7 M193,137.5 h4 M200,137.5 h3 M204,137.5 h13 M304,137.5 h2 M31,138.5 h9 M49,138.5 h7 M185,138.5 h1 M196,138.5 h6 M205,138.5 h2 M208,138.5 h9 M218,138.5 h1 M304,138.5 h2 M31,139.5 h11 M48,139.5 h6 M56,139.5 h1 M196,139.5 h6 M204,139.5 h6 M212,139.5 h5 M218,139.5 h1 M304,139.5 h2 M29,140.5 h13 M47,140.5 h6 M56,140.5 h1 M196,140.5 h4 M202,140.5 h1 M205,140.5 h5 M212,140.5 h6 M26,141.5 h19 M46,141.5 h7 M56,141.5 h1 M183,141.5 h1 M193,141.5 h4 M198,141.5 h2 M205,141.5 h5 M212,141.5 h6 M219,141.5 h1 M26,142.5 h24 M183,142.5 h1 M196,142.5 h2 M202,142.5 h7 M212,142.5 h5 M218,142.5 h2 M28,143.5 h20 M49,143.5 h3 M57,143.5 h1 M195,143.5 h2 M202,143.5 h7 M210,143.5 h1 M213,143.5 h2 M217,143.5 h2 M220,143.5 h1 M26,144.5 h1 M28,144.5 h5 M39,144.5 h9 M50,144.5 h2 M194,144.5 h3 M201,144.5 h8 M211,144.5 h10 M39,145.5 h9 M50,145.5 h1 M192,145.5 h6 M199,145.5 h1 M201,145.5 h7 M211,145.5 h10 M253,145.5 h1 M39,146.5 h8 M193,146.5 h3 M204,146.5 h4 M211,146.5 h9 M251,146.5 h1 M13,147.5 h2 M39,147.5 h7 M51,147.5 h1 M192,147.5 h3 M202,147.5 h5 M212,147.5 h8 M221,147.5 h1 M253,147.5 h1 M11,148.5 h8 M37,148.5 h10 M192,148.5 h3 M202,148.5 h4 M212,148.5 h10 M0,149.5 h4 M6,149.5 h2 M10,149.5 h10 M37,149.5 h7 M45,149.5 h1 M192,149.5 h2 M202,149.5 h2 M205,149.5 h1 M211,149.5 h11 M0,150.5 h4 M6,150.5 h16 M41,150.5 h4 M191,150.5 h2 M204,150.5 h1 M209,150.5 h13 M5,151.5 h19 M41,151.5 h5 M191,151.5 h2 M202,151.5 h1 M209,151.5 h9 M219,151.5 h3 M6,152.5 h12 M19,152.5 h1 M41,152.5 h2 M44,152.5 h2 M190,152.5 h2 M209,152.5 h12 M6,153.5 h3 M12,153.5 h4 M41,153.5 h2 M44,153.5 h1 M186,153.5 h1 M190,153.5 h1 M208,153.5 h13 M4,154.5 h6 M41,154.5 h2 M190,154.5 h1 M209,154.5 h12 M246,154.5 h2 M4,155.5 h6 M41,155.5 h2 M206,155.5 h1 M208,155.5 h8 M218,155.5 h3 M222,155.5 h1 M246,155.5 h11 M6,156.5 h2 M41,156.5 h1 M45,156.5 h1 M207,156.5 h10 M219,156.5 h4 M247,156.5 h1 M250,156.5 h8 M41,157.5 h2 M53,157.5 h1 M202,157.5 h2 M207,157.5 h11 M220,157.5 h2 M250,157.5 h12 M292,157.5 h1 M41,158.5 h2 M201,158.5 h2 M207,158.5 h15 M223,158.5 h1 M252,158.5 h11 M40,159.5 h2 M199,159.5 h4 M204,159.5 h1 M206,159.5 h7 M214,159.5 h2 M218,159.5 h3 M223,159.5 h1 M253,159.5 h10 M267,159.5 h1 M40,160.5 h2 M197,160.5 h6 M205,160.5 h6 M212,160.5 h2 M215,160.5 h1 M220,160.5 h4 M255,160.5 h5 M265,160.5 h3 M40,161.5 h1 M194,161.5 h7 M206,161.5 h14 M221,161.5 h1 M255,161.5 h4 M266,161.5 h3 M40,162.5 h1 M192,162.5 h7 M208,162.5 h12 M224,162.5 h1 M255,162.5 h1 M257,162.5 h1 M40,163.5 h1 M189,163.5 h8 M209,163.5 h14 M224,163.5 h1 M40,164.5 h1 M211,164.5 h12 M224,164.5 h1 M40,165.5 h1 M212,165.5 h11 M224,165.5 h1 M40,166.5 h1 M213,166.5 h11 M213,167.5 h11 M225,167.5 h1 M213,168.5 h2 M224,168.5 h2 M213,169.5 h1 M224,169.5 h2 M274,169.5 h2 M225,170.5 h1 M273,170.5 h5 M41,171.5 h1 M199,171.5 h1 M216,171.5 h1 M218,171.5 h3 M222,171.5 h1 M225,171.5 h2 M274,171.5 h4 M212,172.5 h15 M41,173.5 h1 M207,173.5 h20 M241,173.5 h3 M41,174.5 h1 M196,174.5 h31 M241,174.5 h3 M290,174.5 h6 M41,175.5 h2 M191,175.5 h1 M206,175.5 h21 M241,175.5 h1 M289,175.5 h10 M41,176.5 h2 M216,176.5 h11 M292,176.5 h3 M296,176.5 h3 M41,177.5 h2 M220,177.5 h7 M244,177.5 h2 M297,177.5 h2 M301,177.5 h1 M41,178.5 h1 M43,178.5 h1 M224,178.5 h3 M297,178.5 h2 M300,178.5 h2 M41,179.5 h1 M43,179.5 h1 M177,179.5 h1 M225,179.5 h1 M250,179.5 h4 M298,179.5 h1 M41,180.5 h1 M214,180.5 h2 M225,180.5 h1 M41,181.5 h2 M196,181.5 h1 M210,181.5 h10 M225,181.5 h1 M41,182.5 h2 M193,182.5 h7 M201,182.5 h2 M204,182.5 h17 M225,182.5 h1 M193,183.5 h29 M224,183.5 h1 M195,184.5 h27 M224,184.5 h1 M190,185.5 h1 M193,185.5 h1 M195,185.5 h28 M224,185.5 h1 M193,186.5 h1 M195,186.5 h1 M197,186.5 h4 M202,186.5 h19 M222,186.5 h2 M275,186.5 h5 M295,186.5 h1 M192,187.5 h1 M194,187.5 h4 M202,187.5 h22 M276,187.5 h1 M278,187.5 h2 M189,188.5 h2 M192,188.5 h5 M199,188.5 h1 M202,188.5 h1 M204,188.5 h1 M206,188.5 h16 M223,188.5 h1 M184,189.5 h1 M189,189.5 h12 M207,189.5 h15 M223,189.5 h1 M266,189.5 h1 M43,190.5 h1 M184,190.5 h1 M191,190.5 h11 M203,190.5 h1 M207,190.5 h16 M193,191.5 h1 M195,191.5 h10 M210,191.5 h13 M198,192.5 h10 M212,192.5 h11 M44,193.5 h1 M189,193.5 h1 M191,193.5 h1 M194,193.5 h1 M196,193.5 h1 M203,193.5 h20 M224,193.5 h1 M191,194.5 h10 M203,194.5 h1 M205,194.5 h18 M224,194.5 h1 M191,195.5 h34 M272,195.5 h2 M191,196.5 h1 M193,196.5 h32 M194,197.5 h30 M192,198.5 h5 M198,198.5 h27 M191,199.5 h2 M195,199.5 h6 M202,199.5 h17 M220,199.5 h4 M189,200.5 h17 M207,200.5 h17 M186,201.5 h20 M210,201.5 h14 M197,202.5 h11 M210,202.5 h15" stroke="#f0f0f0" stroke-width="1" />
    <path d="M90,3.5 h3 M87,4.5 h1 M89,4.5 h3 M93,4.5 h2 M86,5.5 h1 M88,5.5 h2 M93,5.5 h3 M85,6.5 h1 M90,6.5 h1 M94,6.5 h1 M96,6.5 h1 M107,6.5 h1 M111,6.5 h2 M88,7.5 h1 M90,7.5 h2 M99,7.5 h1 M106,7.5 h1 M110,7.5 h1 M112,7.5 h3 M116,7.5 h2 M84,8.5 h1 M87,8.5 h1 M90,8.5 h1 M97,8.5 h1 M100,8.5 h2 M104,8.5 h2 M108,8.5 h3 M114,8.5 h4 M67,9.5 h2 M84,9.5 h1 M89,9.5 h2 M99,9.5 h1 M101,9.5 h6 M108,9.5 h5 M114,9.5 h6 M65,10.5 h1 M77,10.5 h8 M101,10.5 h1 M103,10.5 h1 M105,10.5 h18 M64,11.5 h2 M70,11.5 h3 M75,11.5 h1 M77,11.5 h2 M80,11.5 h5 M87,11.5 h1 M90,11.5 h1 M101,11.5 h6 M113,11.5 h4 M121,11.5 h2 M64,12.5 h1 M70,12.5 h5 M76,12.5 h9 M88,12.5 h2 M110,12.5 h1 M116,12.5 h5 M63,13.5 h1 M70,13.5 h1 M85,13.5 h1 M108,13.5 h2 M112,13.5 h2 M124,13.5 h1 M62,14.5 h1 M69,14.5 h1 M71,14.5 h1 M86,14.5 h1 M107,14.5 h1 M110,14.5 h5 M118,14.5 h4 M125,14.5 h2 M61,15.5 h2 M67,15.5 h2 M70,15.5 h2 M77,15.5 h1 M109,15.5 h1 M111,15.5 h2 M119,15.5 h5 M125,15.5 h1 M128,15.5 h1 M61,16.5 h1 M67,16.5 h1 M69,16.5 h1 M109,16.5 h2 M114,16.5 h1 M119,16.5 h6 M126,16.5 h1 M129,16.5 h1 M58,17.5 h1 M60,17.5 h1 M66,17.5 h1 M68,17.5 h1 M120,17.5 h1 M122,17.5 h4 M129,17.5 h2 M58,18.5 h2 M65,18.5 h1 M124,18.5 h2 M61,19.5 h1 M63,19.5 h2 M118,19.5 h3 M129,19.5 h1 M57,20.5 h3 M63,20.5 h1 M96,20.5 h1 M129,20.5 h1 M57,21.5 h2 M128,21.5 h2 M60,22.5 h1 M66,22.5 h1 M127,22.5 h2 M61,23.5 h2 M65,23.5 h1 M127,23.5 h1 M60,24.5 h2 M128,24.5 h1 M134,24.5 h1 M63,25.5 h1 M130,25.5 h1 M132,25.5 h3 M57,26.5 h1 M130,26.5 h1 M133,26.5 h1 M57,27.5 h1 M130,27.5 h3 M135,27.5 h1 M56,28.5 h1 M58,28.5 h2 M131,28.5 h5 M56,29.5 h3 M130,29.5 h9 M56,30.5 h2 M132,30.5 h4 M138,30.5 h1 M56,31.5 h1 M133,31.5 h8 M55,32.5 h2 M131,32.5 h2 M135,32.5 h1 M137,32.5 h2 M143,32.5 h1 M54,33.5 h1 M132,33.5 h1 M136,33.5 h5 M143,33.5 h1 M52,34.5 h1 M138,34.5 h4 M143,34.5 h1 M51,35.5 h1 M54,35.5 h2 M131,35.5 h1 M139,35.5 h1 M143,35.5 h1 M50,36.5 h1 M52,36.5 h4 M139,36.5 h2 M52,37.5 h2 M55,37.5 h1 M137,37.5 h2 M140,37.5 h1 M143,37.5 h2 M49,38.5 h1 M51,38.5 h1 M138,38.5 h1 M141,38.5 h4 M49,39.5 h5 M142,39.5 h4 M50,40.5 h3 M141,40.5 h2 M144,40.5 h1 M50,41.5 h1 M142,41.5 h5 M49,42.5 h1 M52,42.5 h1 M143,42.5 h4 M142,43.5 h2 M146,43.5 h1 M153,43.5 h1 M49,44.5 h1 M53,44.5 h1 M120,44.5 h2 M145,44.5 h1 M147,44.5 h2 M152,44.5 h2 M41,45.5 h1 M48,45.5 h1 M121,45.5 h2 M144,45.5 h1 M146,45.5 h1 M149,45.5 h4 M40,46.5 h1 M49,46.5 h1 M122,46.5 h2 M148,46.5 h2 M39,47.5 h1 M46,47.5 h1 M49,47.5 h1 M124,47.5 h1 M46,48.5 h1 M49,48.5 h1 M120,48.5 h1 M151,48.5 h1 M48,49.5 h1 M50,49.5 h2 M46,50.5 h1 M121,50.5 h6 M152,50.5 h1 M39,51.5 h1 M43,51.5 h1 M94,51.5 h3 M107,51.5 h1 M117,51.5 h10 M145,51.5 h2 M149,51.5 h1 M152,51.5 h1 M40,52.5 h2 M44,52.5 h2 M47,52.5 h1 M93,52.5 h9 M106,52.5 h5 M117,52.5 h8 M127,52.5 h1 M41,53.5 h4 M47,53.5 h1 M49,53.5 h1 M90,53.5 h14 M106,53.5 h5 M113,53.5 h1 M122,53.5 h3 M127,53.5 h1 M143,53.5 h1 M146,53.5 h3 M153,53.5 h1 M47,54.5 h2 M91,54.5 h13 M106,54.5 h4 M124,54.5 h2 M127,54.5 h2 M148,54.5 h1 M151,54.5 h1 M153,54.5 h1 M48,55.5 h1 M50,55.5 h1 M90,55.5 h1 M93,55.5 h11 M106,55.5 h4 M126,55.5 h3 M50,56.5 h1 M88,56.5 h4 M93,56.5 h11 M106,56.5 h3 M127,56.5 h2 M144,56.5 h1 M147,56.5 h1 M149,56.5 h1 M48,57.5 h1 M89,57.5 h2 M94,57.5 h10 M121,57.5 h4 M127,57.5 h3 M144,57.5 h1 M146,57.5 h1 M47,58.5 h1 M86,58.5 h2 M100,58.5 h5 M124,58.5 h6 M149,58.5 h1 M153,58.5 h1 M101,59.5 h6 M125,59.5 h4 M145,59.5 h1 M153,59.5 h1 M102,60.5 h6 M127,60.5 h2 M130,60.5 h1 M145,60.5 h1 M147,60.5 h1 M150,60.5 h1 M46,61.5 h1 M102,61.5 h6 M120,61.5 h5 M128,61.5 h2 M146,61.5 h1 M149,61.5 h1 M102,62.5 h7 M120,62.5 h10 M131,62.5 h1 M149,62.5 h1 M152,62.5 h1 M103,63.5 h6 M121,63.5 h9 M144,63.5 h1 M146,63.5 h3 M103,64.5 h7 M122,64.5 h5 M129,64.5 h2 M103,65.5 h5 M109,65.5 h1 M123,65.5 h5 M132,65.5 h1 M47,66.5 h1 M102,66.5 h6 M110,66.5 h2 M118,66.5 h10 M129,66.5 h1 M42,67.5 h1 M47,67.5 h3 M103,67.5 h6 M111,67.5 h17 M130,67.5 h1 M141,67.5 h1 M42,68.5 h1 M48,68.5 h1 M103,68.5 h6 M111,68.5 h16 M131,68.5 h1 M133,68.5 h1 M143,68.5 h1 M41,69.5 h1 M43,69.5 h1 M103,69.5 h6 M112,69.5 h15 M133,69.5 h1 M41,70.5 h1 M50,70.5 h1 M103,70.5 h6 M113,70.5 h15 M45,71.5 h1 M103,71.5 h7 M113,71.5 h16 M145,71.5 h2 M104,72.5 h6 M113,72.5 h2 M117,72.5 h13 M134,72.5 h1 M144,72.5 h3 M50,73.5 h1 M53,73.5 h1 M82,73.5 h1 M103,73.5 h8 M114,73.5 h3 M122,73.5 h9 M134,73.5 h1 M144,73.5 h1 M146,73.5 h1 M50,74.5 h2 M82,74.5 h11 M103,74.5 h8 M117,74.5 h1 M124,74.5 h7 M145,74.5 h1 M51,75.5 h1 M82,75.5 h11 M102,75.5 h2 M105,75.5 h7 M117,75.5 h2 M126,75.5 h7 M135,75.5 h1 M143,75.5 h1 M51,76.5 h2 M80,76.5 h1 M82,76.5 h14 M102,76.5 h11 M117,76.5 h3 M128,76.5 h3 M132,76.5 h2 M135,76.5 h2 M143,76.5 h2 M147,76.5 h1 M79,77.5 h1 M81,77.5 h14 M100,77.5 h5 M109,77.5 h4 M114,77.5 h7 M128,77.5 h3 M132,77.5 h2 M135,77.5 h3 M146,77.5 h1 M79,78.5 h1 M81,78.5 h13 M99,78.5 h5 M112,78.5 h10 M129,78.5 h2 M132,78.5 h1 M135,78.5 h3 M147,78.5 h1 M52,79.5 h1 M54,79.5 h1 M80,79.5 h12 M99,79.5 h4 M112,79.5 h11 M130,79.5 h3 M135,79.5 h3 M54,80.5 h1 M80,80.5 h11 M112,80.5 h2 M117,80.5 h1 M119,80.5 h5 M131,80.5 h2 M134,80.5 h4 M147,80.5 h1 M51,81.5 h1 M53,81.5 h1 M80,81.5 h10 M119,81.5 h1 M124,81.5 h1 M131,81.5 h2 M134,81.5 h3 M141,81.5 h1 M52,82.5 h1 M78,82.5 h1 M80,82.5 h9 M131,82.5 h2 M134,82.5 h3 M52,83.5 h1 M80,83.5 h7 M131,83.5 h2 M134,83.5 h2 M138,83.5 h1 M140,83.5 h1 M142,83.5 h1 M53,84.5 h1 M71,84.5 h1 M80,84.5 h5 M116,84.5 h7 M131,84.5 h2 M134,84.5 h2 M137,84.5 h2 M143,84.5 h1 M54,85.5 h2 M80,85.5 h2 M113,85.5 h5 M122,85.5 h1 M131,85.5 h2 M134,85.5 h2 M139,85.5 h3 M144,85.5 h1 M80,86.5 h1 M131,86.5 h2 M135,86.5 h1 M144,86.5 h1 M56,87.5 h1 M72,87.5 h1 M80,87.5 h1 M116,87.5 h2 M119,87.5 h1 M131,87.5 h2 M134,87.5 h2 M143,87.5 h1 M69,88.5 h1 M80,88.5 h1 M114,88.5 h2 M117,88.5 h1 M120,88.5 h1 M131,88.5 h1 M134,88.5 h2 M143,88.5 h2 M57,89.5 h1 M69,89.5 h1 M112,89.5 h1 M115,89.5 h1 M124,89.5 h3 M131,89.5 h1 M134,89.5 h1 M144,89.5 h1 M67,90.5 h1 M69,90.5 h1 M72,90.5 h1 M109,90.5 h2 M112,90.5 h1 M120,90.5 h1 M123,90.5 h4 M131,90.5 h1 M134,90.5 h1 M144,90.5 h1 M58,91.5 h1 M68,91.5 h1 M105,91.5 h2 M108,91.5 h1 M111,91.5 h2 M117,91.5 h2 M122,91.5 h5 M131,91.5 h1 M134,91.5 h1 M144,91.5 h1 M69,92.5 h1 M102,92.5 h2 M105,92.5 h8 M115,92.5 h1 M121,92.5 h2 M125,92.5 h3 M131,92.5 h4 M146,92.5 h1 M101,93.5 h1 M103,93.5 h3 M107,93.5 h2 M110,93.5 h2 M119,93.5 h3 M125,93.5 h3 M130,93.5 h2 M133,93.5 h1 M141,93.5 h1 M146,93.5 h1 M101,94.5 h4 M116,94.5 h4 M126,94.5 h2 M129,94.5 h6 M140,94.5 h2 M143,94.5 h1 M145,94.5 h1 M63,95.5 h1 M114,95.5 h6 M126,95.5 h6 M133,95.5 h2 M142,95.5 h1 M64,96.5 h1 M112,96.5 h9 M126,96.5 h6 M134,96.5 h2 M139,96.5 h3 M143,96.5 h2 M146,96.5 h2 M113,97.5 h8 M126,97.5 h7 M134,97.5 h1 M136,97.5 h2 M142,97.5 h2 M116,98.5 h5 M122,98.5 h1 M126,98.5 h3 M130,98.5 h2 M134,98.5 h1 M137,98.5 h3 M152,98.5 h1 M46,99.5 h2 M69,99.5 h1 M71,99.5 h1 M115,99.5 h7 M126,99.5 h5 M134,99.5 h1 M137,99.5 h2 M144,99.5 h2 M153,99.5 h1 M45,100.5 h3 M66,100.5 h2 M70,100.5 h1 M72,100.5 h1 M119,100.5 h4 M126,100.5 h5 M133,100.5 h1 M138,100.5 h1 M144,100.5 h2 M153,100.5 h3 M45,101.5 h4 M66,101.5 h1 M71,101.5 h1 M102,101.5 h1 M120,101.5 h2 M126,101.5 h4 M138,101.5 h2 M144,101.5 h4 M153,101.5 h7 M167,101.5 h1 M44,102.5 h4 M65,102.5 h2 M68,102.5 h1 M120,102.5 h2 M126,102.5 h4 M133,102.5 h2 M138,102.5 h2 M144,102.5 h4 M153,102.5 h8 M168,102.5 h7 M44,103.5 h4 M65,103.5 h1 M69,103.5 h1 M119,103.5 h3 M126,103.5 h1 M128,103.5 h2 M132,103.5 h3 M137,103.5 h3 M145,103.5 h1 M147,103.5 h1 M153,103.5 h9 M164,103.5 h2 M175,103.5 h9 M27,104.5 h4 M44,104.5 h2 M65,104.5 h1 M67,104.5 h1 M118,104.5 h4 M128,104.5 h2 M132,104.5 h2 M137,104.5 h3 M145,104.5 h4 M153,104.5 h10 M164,104.5 h2 M185,104.5 h3 M26,105.5 h21 M52,105.5 h1 M65,105.5 h4 M71,105.5 h1 M75,105.5 h1 M118,105.5 h4 M128,105.5 h2 M132,105.5 h3 M137,105.5 h4 M145,105.5 h2 M148,105.5 h1 M152,105.5 h16 M170,105.5 h1 M192,105.5 h1 M25,106.5 h23 M60,106.5 h8 M70,106.5 h1 M72,106.5 h2 M76,106.5 h1 M111,106.5 h1 M117,106.5 h6 M128,106.5 h2 M132,106.5 h9 M145,106.5 h3 M152,106.5 h17 M24,107.5 h24 M56,107.5 h16 M75,107.5 h2 M78,107.5 h2 M110,107.5 h13 M127,107.5 h2 M131,107.5 h10 M145,107.5 h3 M152,107.5 h16 M173,107.5 h1 M24,108.5 h47 M111,108.5 h12 M124,108.5 h2 M127,108.5 h1 M131,108.5 h10 M145,108.5 h1 M147,108.5 h1 M151,108.5 h16 M169,108.5 h6 M21,109.5 h51 M112,109.5 h16 M131,109.5 h10 M145,109.5 h1 M151,109.5 h14 M167,109.5 h5 M19,110.5 h54 M112,110.5 h3 M117,110.5 h1 M119,110.5 h8 M130,110.5 h11 M145,110.5 h3 M151,110.5 h1 M153,110.5 h11 M165,110.5 h6 M172,110.5 h2 M175,110.5 h2 M18,111.5 h54 M122,111.5 h5 M130,111.5 h11 M145,111.5 h2 M152,111.5 h22 M176,111.5 h1 M17,112.5 h56 M81,112.5 h1 M122,112.5 h1 M130,112.5 h11 M146,112.5 h2 M151,112.5 h26 M181,112.5 h2 M206,112.5 h1 M16,113.5 h58 M80,113.5 h2 M85,113.5 h2 M129,113.5 h12 M146,113.5 h1 M152,113.5 h29 M206,113.5 h9 M15,114.5 h66 M83,114.5 h4 M128,114.5 h13 M146,114.5 h2 M150,114.5 h1 M153,114.5 h30 M184,114.5 h1 M207,114.5 h8 M15,115.5 h67 M83,115.5 h1 M85,115.5 h1 M88,115.5 h1 M127,115.5 h3 M131,115.5 h10 M153,115.5 h33 M208,115.5 h7 M13,116.5 h67 M82,116.5 h2 M130,116.5 h11 M152,116.5 h36 M190,116.5 h1 M209,116.5 h7 M11,117.5 h66 M81,117.5 h4 M125,117.5 h1 M131,117.5 h10 M152,117.5 h34 M188,117.5 h2 M210,117.5 h8 M10,118.5 h64 M80,118.5 h5 M123,118.5 h2 M132,118.5 h9 M151,118.5 h39 M211,118.5 h13 M9,119.5 h62 M77,119.5 h1 M79,119.5 h2 M82,119.5 h1 M84,119.5 h1 M89,119.5 h1 M121,119.5 h3 M125,119.5 h1 M132,119.5 h8 M153,119.5 h37 M212,119.5 h15 M7,120.5 h63 M75,120.5 h3 M79,120.5 h2 M82,120.5 h3 M88,120.5 h3 M120,120.5 h6 M134,120.5 h5 M153,120.5 h3 M157,120.5 h32 M212,120.5 h18 M5,121.5 h65 M74,121.5 h3 M79,121.5 h2 M82,121.5 h2 M88,121.5 h3 M120,121.5 h6 M133,121.5 h5 M152,121.5 h37 M213,121.5 h20 M3,122.5 h65 M73,122.5 h4 M78,122.5 h3 M82,122.5 h4 M88,122.5 h4 M119,122.5 h7 M148,122.5 h1 M152,122.5 h2 M156,122.5 h34 M213,122.5 h23 M0,123.5 h67 M73,123.5 h12 M87,123.5 h5 M119,123.5 h7 M152,123.5 h3 M156,123.5 h34 M194,123.5 h2 M214,123.5 h23 M0,124.5 h57 M71,124.5 h10 M82,124.5 h3 M86,124.5 h7 M119,124.5 h7 M152,124.5 h35 M192,124.5 h1 M200,124.5 h1 M214,124.5 h35 M0,125.5 h54 M71,125.5 h14 M86,125.5 h7 M119,125.5 h7 M152,125.5 h36 M189,125.5 h1 M191,125.5 h3 M196,125.5 h1 M198,125.5 h2 M215,125.5 h9 M228,125.5 h22 M252,125.5 h4 M0,126.5 h52 M71,126.5 h10 M82,126.5 h12 M119,126.5 h7 M148,126.5 h1 M151,126.5 h28 M180,126.5 h8 M191,126.5 h1 M193,126.5 h2 M197,126.5 h3 M215,126.5 h9 M229,126.5 h37 M0,127.5 h20 M26,127.5 h3 M31,127.5 h14 M68,127.5 h26 M120,127.5 h1 M122,127.5 h4 M146,127.5 h1 M152,127.5 h34 M187,127.5 h2 M191,127.5 h2 M195,127.5 h5 M216,127.5 h7 M230,127.5 h48 M0,128.5 h19 M33,128.5 h9 M51,128.5 h1 M67,128.5 h2 M70,128.5 h4 M76,128.5 h4 M81,128.5 h1 M83,128.5 h12 M151,128.5 h1 M154,128.5 h39 M195,128.5 h3 M199,128.5 h1 M217,128.5 h7 M230,128.5 h21 M252,128.5 h28 M284,128.5 h2 M0,129.5 h19 M33,129.5 h3 M50,129.5 h2 M65,129.5 h4 M70,129.5 h4 M76,129.5 h6 M83,129.5 h6 M90,129.5 h5 M151,129.5 h26 M178,129.5 h10 M189,129.5 h4 M194,129.5 h3 M217,129.5 h7 M230,129.5 h21 M252,129.5 h35 M0,130.5 h19 M25,130.5 h4 M31,130.5 h5 M41,130.5 h4 M49,130.5 h4 M55,130.5 h1 M65,130.5 h5 M71,130.5 h4 M76,130.5 h12 M90,130.5 h3 M95,130.5 h1 M152,130.5 h34 M187,130.5 h2 M190,130.5 h9 M217,130.5 h8 M230,130.5 h62 M297,130.5 h1 M0,131.5 h18 M25,131.5 h11 M40,131.5 h14 M64,131.5 h10 M77,131.5 h12 M90,131.5 h2 M95,131.5 h1 M149,131.5 h2 M152,131.5 h34 M188,131.5 h10 M217,131.5 h10 M228,131.5 h71 M0,132.5 h19 M23,132.5 h14 M40,132.5 h14 M63,132.5 h7 M71,132.5 h4 M77,132.5 h5 M83,132.5 h10 M95,132.5 h1 M148,132.5 h41 M191,132.5 h7 M199,132.5 h1 M218,132.5 h83 M0,133.5 h53 M60,133.5 h1 M63,133.5 h12 M78,133.5 h4 M83,133.5 h11 M95,133.5 h2 M148,133.5 h37 M186,133.5 h3 M190,133.5 h8 M199,133.5 h1 M203,133.5 h1 M218,133.5 h85 M0,134.5 h52 M60,134.5 h15 M79,134.5 h1 M83,134.5 h9 M94,134.5 h1 M96,134.5 h1 M148,134.5 h38 M187,134.5 h1 M189,134.5 h9 M203,134.5 h1 M206,134.5 h1 M218,134.5 h87 M0,135.5 h51 M59,135.5 h17 M78,135.5 h2 M81,135.5 h9 M91,135.5 h1 M94,135.5 h1 M96,135.5 h1 M147,135.5 h8 M156,135.5 h39 M203,135.5 h1 M218,135.5 h87 M0,136.5 h50 M57,136.5 h19 M79,136.5 h12 M92,136.5 h2 M96,136.5 h2 M147,136.5 h7 M155,136.5 h39 M198,136.5 h1 M201,136.5 h1 M218,136.5 h86 M0,137.5 h49 M56,137.5 h20 M81,137.5 h10 M94,137.5 h1 M96,137.5 h2 M147,137.5 h7 M155,137.5 h38 M197,137.5 h3 M203,137.5 h1 M218,137.5 h86 M0,138.5 h31 M40,138.5 h9 M56,138.5 h21 M81,138.5 h11 M93,138.5 h1 M95,138.5 h1 M143,138.5 h1 M146,138.5 h39 M186,138.5 h10 M202,138.5 h3 M207,138.5 h1 M219,138.5 h85 M0,139.5 h31 M42,139.5 h6 M54,139.5 h2 M57,139.5 h20 M79,139.5 h1 M83,139.5 h9 M93,139.5 h1 M98,139.5 h1 M143,139.5 h1 M145,139.5 h51 M202,139.5 h2 M210,139.5 h2 M219,139.5 h85 M0,140.5 h29 M42,140.5 h5 M53,140.5 h3 M57,140.5 h20 M80,140.5 h14 M95,140.5 h2 M143,140.5 h11 M155,140.5 h41 M200,140.5 h2 M203,140.5 h2 M210,140.5 h2 M219,140.5 h87 M0,141.5 h26 M45,141.5 h1 M53,141.5 h3 M57,141.5 h20 M81,141.5 h1 M83,141.5 h10 M94,141.5 h3 M99,141.5 h1 M144,141.5 h39 M184,141.5 h9 M197,141.5 h1 M200,141.5 h5 M210,141.5 h2 M220,141.5 h86 M0,142.5 h26 M50,142.5 h28 M81,142.5 h12 M94,142.5 h3 M99,142.5 h1 M142,142.5 h41 M184,142.5 h12 M198,142.5 h4 M209,142.5 h3 M220,142.5 h86 M0,143.5 h28 M48,143.5 h1 M52,143.5 h5 M58,143.5 h21 M81,143.5 h12 M94,143.5 h3 M100,143.5 h1 M142,143.5 h53 M197,143.5 h5 M209,143.5 h1 M211,143.5 h2 M221,143.5 h85 M0,144.5 h26 M27,144.5 h1 M33,144.5 h6 M48,144.5 h2 M52,144.5 h26 M83,144.5 h11 M95,144.5 h3 M141,144.5 h9 M151,144.5 h1 M154,144.5 h40 M197,144.5 h4 M209,144.5 h2 M221,144.5 h85 M0,145.5 h39 M48,145.5 h2 M51,145.5 h28 M85,145.5 h14 M101,145.5 h1 M141,145.5 h10 M153,145.5 h39 M198,145.5 h1 M200,145.5 h1 M208,145.5 h3 M221,145.5 h32 M254,145.5 h52 M0,146.5 h39 M47,146.5 h31 M82,146.5 h16 M141,146.5 h12 M154,146.5 h39 M196,146.5 h8 M208,146.5 h3 M221,146.5 h30 M252,146.5 h54 M0,147.5 h13 M15,147.5 h24 M46,147.5 h5 M52,147.5 h27 M83,147.5 h15 M140,147.5 h10 M151,147.5 h1 M154,147.5 h38 M195,147.5 h7 M207,147.5 h5 M222,147.5 h31 M254,147.5 h52 M0,148.5 h11 M19,148.5 h18 M47,148.5 h33 M82,148.5 h16 M99,148.5 h1 M140,148.5 h9 M150,148.5 h1 M153,148.5 h39 M195,148.5 h7 M206,148.5 h6 M222,148.5 h84 M4,149.5 h2 M8,149.5 h2 M20,149.5 h17 M44,149.5 h1 M46,149.5 h34 M82,149.5 h14 M97,149.5 h3 M103,149.5 h1 M140,149.5 h10 M153,149.5 h39 M194,149.5 h8 M204,149.5 h1 M206,149.5 h5 M222,149.5 h84 M4,150.5 h2 M22,150.5 h19 M45,150.5 h35 M82,150.5 h17 M100,150.5 h1 M139,150.5 h10 M151,150.5 h40 M193,150.5 h11 M205,150.5 h4 M222,150.5 h84 M0,151.5 h5 M24,151.5 h17 M46,151.5 h34 M82,151.5 h20 M104,151.5 h1 M139,151.5 h12 M152,151.5 h20 M173,151.5 h12 M186,151.5 h5 M193,151.5 h9 M203,151.5 h6 M222,151.5 h84 M0,152.5 h6 M18,152.5 h1 M20,152.5 h21 M43,152.5 h1 M46,152.5 h34 M82,152.5 h1 M84,152.5 h2 M87,152.5 h16 M138,152.5 h11 M153,152.5 h32 M186,152.5 h4 M192,152.5 h17 M222,152.5 h84 M0,153.5 h6 M9,153.5 h3 M16,153.5 h25 M43,153.5 h1 M45,153.5 h35 M83,153.5 h3 M88,153.5 h15 M105,153.5 h1 M138,153.5 h11 M152,153.5 h32 M185,153.5 h1 M187,153.5 h3 M191,153.5 h17 M222,153.5 h1 M224,153.5 h82 M0,154.5 h4 M10,154.5 h31 M43,154.5 h38 M83,154.5 h1 M86,154.5 h19 M138,154.5 h11 M151,154.5 h18 M171,154.5 h11 M183,154.5 h1 M185,154.5 h5 M191,154.5 h18 M222,154.5 h1 M224,154.5 h2 M227,154.5 h19 M248,154.5 h58 M0,155.5 h4 M10,155.5 h31 M43,155.5 h43 M87,155.5 h18 M106,155.5 h1 M137,155.5 h12 M153,155.5 h16 M170,155.5 h13 M184,155.5 h22 M207,155.5 h1 M223,155.5 h23 M257,155.5 h49 M0,156.5 h6 M8,156.5 h33 M42,156.5 h3 M46,156.5 h37 M84,156.5 h2 M87,156.5 h20 M137,156.5 h12 M152,156.5 h16 M171,156.5 h10 M183,156.5 h24 M223,156.5 h24 M248,156.5 h2 M258,156.5 h48 M0,157.5 h41 M43,157.5 h10 M54,157.5 h52 M107,157.5 h1 M136,157.5 h12 M152,157.5 h16 M171,157.5 h31 M204,157.5 h3 M223,157.5 h27 M262,157.5 h30 M293,157.5 h13 M0,158.5 h41 M43,158.5 h45 M89,158.5 h13 M103,158.5 h6 M136,158.5 h11 M151,158.5 h16 M171,158.5 h8 M182,158.5 h19 M203,158.5 h4 M224,158.5 h28 M263,158.5 h43 M0,159.5 h40 M42,159.5 h44 M89,159.5 h20 M135,159.5 h12 M151,159.5 h15 M170,159.5 h7 M178,159.5 h1 M182,159.5 h17 M203,159.5 h1 M205,159.5 h1 M224,159.5 h29 M263,159.5 h4 M268,159.5 h38 M0,160.5 h40 M42,160.5 h44 M88,160.5 h22 M135,160.5 h12 M150,160.5 h16 M170,160.5 h5 M181,160.5 h16 M203,160.5 h2 M224,160.5 h31 M260,160.5 h5 M268,160.5 h38 M0,161.5 h40 M41,161.5 h35 M77,161.5 h34 M134,161.5 h13 M150,161.5 h16 M170,161.5 h4 M180,161.5 h14 M201,161.5 h5 M224,161.5 h31 M259,161.5 h7 M269,161.5 h37 M0,162.5 h40 M41,162.5 h71 M133,162.5 h14 M150,162.5 h15 M169,162.5 h5 M179,162.5 h13 M199,162.5 h9 M225,162.5 h30 M256,162.5 h1 M258,162.5 h48 M0,163.5 h40 M41,163.5 h45 M87,163.5 h25 M133,163.5 h13 M150,163.5 h15 M169,163.5 h4 M179,163.5 h10 M197,163.5 h12 M225,163.5 h81 M0,164.5 h40 M41,164.5 h33 M75,164.5 h12 M88,164.5 h2 M91,164.5 h22 M132,164.5 h13 M149,164.5 h16 M169,164.5 h3 M179,164.5 h32 M225,164.5 h81 M0,165.5 h40 M41,165.5 h35 M77,165.5 h10 M88,165.5 h26 M131,165.5 h14 M149,165.5 h16 M169,165.5 h2 M178,165.5 h22 M207,165.5 h2 M210,165.5 h2 M225,165.5 h81 M0,166.5 h40 M41,166.5 h34 M78,166.5 h37 M130,166.5 h14 M148,166.5 h17 M169,166.5 h2 M177,166.5 h20 M210,166.5 h3 M225,166.5 h81 M0,167.5 h75 M78,167.5 h35 M114,167.5 h3 M130,167.5 h15 M147,167.5 h18 M168,167.5 h3 M177,167.5 h17 M202,167.5 h2 M207,167.5 h6 M226,167.5 h80 M0,168.5 h76 M78,168.5 h41 M129,168.5 h16 M149,168.5 h16 M168,168.5 h3 M176,168.5 h15 M195,168.5 h18 M215,168.5 h9 M226,168.5 h80 M0,169.5 h75 M78,169.5 h43 M128,169.5 h17 M148,169.5 h17 M168,169.5 h2 M175,169.5 h14 M191,169.5 h22 M214,169.5 h10 M226,169.5 h48 M276,169.5 h30 M0,170.5 h75 M78,170.5 h44 M126,170.5 h18 M148,170.5 h17 M168,170.5 h2 M175,170.5 h11 M189,170.5 h36 M226,170.5 h47 M278,170.5 h28 M0,171.5 h41 M42,171.5 h34 M78,171.5 h46 M125,171.5 h18 M148,171.5 h17 M168,171.5 h2 M174,171.5 h10 M187,171.5 h12 M200,171.5 h16 M217,171.5 h1 M221,171.5 h1 M223,171.5 h2 M227,171.5 h47 M278,171.5 h28 M0,172.5 h76 M78,172.5 h65 M148,172.5 h17 M168,172.5 h2 M174,172.5 h8 M185,172.5 h27 M227,172.5 h79 M0,173.5 h41 M42,173.5 h29 M72,173.5 h5 M78,173.5 h65 M147,173.5 h19 M168,173.5 h1 M174,173.5 h7 M183,173.5 h24 M227,173.5 h14 M244,173.5 h62 M0,174.5 h41 M42,174.5 h35 M79,174.5 h63 M146,174.5 h20 M168,174.5 h1 M173,174.5 h6 M182,174.5 h14 M227,174.5 h14 M244,174.5 h46 M296,174.5 h10 M0,175.5 h41 M43,175.5 h34 M78,175.5 h64 M143,175.5 h1 M146,175.5 h20 M168,175.5 h1 M173,175.5 h5 M181,175.5 h10 M192,175.5 h14 M227,175.5 h14 M242,175.5 h47 M299,175.5 h7 M0,176.5 h41 M43,176.5 h28 M72,176.5 h1 M74,176.5 h69 M146,176.5 h20 M168,176.5 h1 M173,176.5 h4 M179,176.5 h37 M227,176.5 h65 M295,176.5 h1 M299,176.5 h7 M0,177.5 h41 M43,177.5 h29 M73,177.5 h2 M76,177.5 h1 M79,177.5 h29 M109,177.5 h33 M145,177.5 h21 M168,177.5 h1 M173,177.5 h3 M178,177.5 h42 M227,177.5 h17 M246,177.5 h51 M299,177.5 h2 M302,177.5 h4 M0,178.5 h41 M42,178.5 h1 M44,178.5 h20 M65,178.5 h8 M76,178.5 h1 M79,178.5 h63 M148,178.5 h19 M168,178.5 h1 M173,178.5 h2 M177,178.5 h47 M227,178.5 h70 M299,178.5 h1 M302,178.5 h4 M0,179.5 h41 M42,179.5 h1 M44,179.5 h20 M66,179.5 h5 M76,179.5 h1 M79,179.5 h63 M146,179.5 h21 M169,179.5 h1 M172,179.5 h3 M178,179.5 h47 M226,179.5 h24 M254,179.5 h44 M299,179.5 h7 M0,180.5 h41 M42,180.5 h22 M66,180.5 h5 M75,180.5 h3 M79,180.5 h64 M145,180.5 h22 M169,180.5 h1 M173,180.5 h1 M176,180.5 h38 M216,180.5 h9 M226,180.5 h80 M0,181.5 h41 M43,181.5 h21 M66,181.5 h7 M79,181.5 h13 M93,181.5 h48 M146,181.5 h21 M169,181.5 h1 M173,181.5 h1 M176,181.5 h20 M197,181.5 h13 M220,181.5 h5 M226,181.5 h80 M0,182.5 h13 M16,182.5 h25 M43,182.5 h22 M68,182.5 h6 M79,182.5 h64 M146,182.5 h22 M176,182.5 h17 M200,182.5 h1 M203,182.5 h1 M221,182.5 h4 M226,182.5 h80 M0,183.5 h9 M16,183.5 h50 M68,183.5 h6 M79,183.5 h62 M146,183.5 h22 M170,183.5 h1 M175,183.5 h18 M222,183.5 h2 M225,183.5 h81 M0,184.5 h2 M15,184.5 h51 M69,184.5 h4 M79,184.5 h61 M143,184.5 h25 M174,184.5 h21 M222,184.5 h2 M225,184.5 h81 M14,185.5 h34 M49,185.5 h18 M69,185.5 h4 M79,185.5 h63 M144,185.5 h24 M173,185.5 h17 M191,185.5 h2 M194,185.5 h1 M223,185.5 h1 M225,185.5 h81 M8,186.5 h59 M70,186.5 h2 M79,186.5 h63 M145,186.5 h22 M173,186.5 h20 M194,186.5 h1 M196,186.5 h1 M201,186.5 h1 M224,186.5 h51 M280,186.5 h15 M296,186.5 h10 M2,187.5 h2 M5,187.5 h63 M71,187.5 h1 M79,187.5 h63 M146,187.5 h21 M168,187.5 h1 M172,187.5 h20 M193,187.5 h1 M198,187.5 h4 M224,187.5 h52 M277,187.5 h1 M280,187.5 h26 M1,188.5 h56 M62,188.5 h7 M71,188.5 h1 M80,188.5 h62 M145,188.5 h23 M173,188.5 h16 M191,188.5 h1 M197,188.5 h2 M200,188.5 h2 M203,188.5 h1 M205,188.5 h1 M224,188.5 h82 M0,189.5 h59 M64,189.5 h1 M66,189.5 h1 M68,189.5 h1 M72,189.5 h1 M80,189.5 h61 M144,189.5 h23 M174,189.5 h10 M185,189.5 h4 M201,189.5 h6 M224,189.5 h42 M267,189.5 h39 M0,190.5 h43 M44,190.5 h17 M72,190.5 h1 M80,190.5 h60 M143,190.5 h24 M175,190.5 h9 M185,190.5 h6 M202,190.5 h1 M204,190.5 h3 M224,190.5 h82 M0,191.5 h57 M58,191.5 h5 M73,191.5 h1 M80,191.5 h59 M142,191.5 h1 M144,191.5 h24 M175,191.5 h18 M194,191.5 h1 M205,191.5 h5 M224,191.5 h82 M0,192.5 h42 M43,192.5 h14 M63,192.5 h2 M73,192.5 h1 M80,192.5 h60 M145,192.5 h23 M175,192.5 h23 M208,192.5 h4 M224,192.5 h82 M0,193.5 h42 M43,193.5 h1 M45,193.5 h13 M80,193.5 h59 M144,193.5 h23 M175,193.5 h14 M190,193.5 h1 M192,193.5 h2 M195,193.5 h1 M197,193.5 h6 M225,193.5 h81 M0,194.5 h9 M12,194.5 h30 M44,194.5 h16 M80,194.5 h61 M142,194.5 h26 M175,194.5 h16 M201,194.5 h2 M204,194.5 h1 M225,194.5 h81 M0,195.5 h9 M11,195.5 h31 M44,195.5 h21 M80,195.5 h60 M145,195.5 h23 M175,195.5 h16 M225,195.5 h47 M274,195.5 h32 M0,196.5 h42 M45,196.5 h28 M81,196.5 h57 M144,196.5 h23 M175,196.5 h16 M192,196.5 h1 M225,196.5 h81 M0,197.5 h41 M45,197.5 h12 M60,197.5 h12 M81,197.5 h57 M140,197.5 h27 M175,197.5 h19 M225,197.5 h81 M0,198.5 h41 M46,198.5 h14 M67,198.5 h4 M73,198.5 h1 M81,198.5 h62 M144,198.5 h23 M175,198.5 h17 M197,198.5 h1 M225,198.5 h81 M0,199.5 h41 M47,199.5 h15 M69,199.5 h6 M81,199.5 h58 M142,199.5 h26 M175,199.5 h16 M193,199.5 h2 M201,199.5 h1 M225,199.5 h81 M0,200.5 h24 M25,200.5 h16 M42,200.5 h2 M47,200.5 h17 M69,200.5 h7 M81,200.5 h55 M138,200.5 h5 M144,200.5 h23 M175,200.5 h14 M206,200.5 h1 M225,200.5 h81 M0,201.5 h23 M28,201.5 h17 M48,201.5 h20 M71,201.5 h2 M74,201.5 h1 M81,201.5 h61 M143,201.5 h26 M175,201.5 h11 M206,201.5 h4 M225,201.5 h81 M0,202.5 h23 M24,202.5 h3 M30,202.5 h16 M48,202.5 h22 M82,202.5 h57 M143,202.5 h26 M175,202.5 h22 M208,202.5 h2 M225,202.5 h81" stroke="#c9c9c9" stroke-width="1" />
    <path d="M88,4.5 h1 M87,5.5 h1 M90,5.5 h3 M86,6.5 h4 M91,6.5 h3 M95,6.5 h1 M85,7.5 h3 M92,7.5 h5 M85,8.5 h2 M91,8.5 h6 M98,8.5 h2 M85,9.5 h2 M91,9.5 h8 M85,10.5 h2 M90,10.5 h10 M102,10.5 h1 M76,11.5 h1 M85,11.5 h2 M91,11.5 h10 M107,11.5 h6 M75,12.5 h1 M85,12.5 h3 M91,12.5 h19 M111,12.5 h5 M71,13.5 h14 M86,13.5 h22 M110,13.5 h2 M114,13.5 h10 M70,14.5 h1 M72,14.5 h14 M87,14.5 h20 M108,14.5 h2 M115,14.5 h3 M122,14.5 h3 M69,15.5 h1 M72,15.5 h5 M78,15.5 h31 M113,15.5 h6 M124,15.5 h1 M68,16.5 h1 M70,16.5 h39 M111,16.5 h3 M115,16.5 h4 M125,16.5 h1 M67,17.5 h1 M69,17.5 h51 M121,17.5 h1 M126,17.5 h1 M66,18.5 h58 M126,18.5 h4 M62,19.5 h1 M65,19.5 h53 M121,19.5 h8 M60,20.5 h3 M64,20.5 h32 M97,20.5 h32 M59,21.5 h69 M58,22.5 h2 M61,22.5 h5 M67,22.5 h60 M58,23.5 h3 M63,23.5 h2 M66,23.5 h61 M58,24.5 h2 M62,24.5 h66 M58,25.5 h5 M64,25.5 h66 M131,25.5 h1 M58,26.5 h72 M58,27.5 h72 M60,28.5 h71 M59,29.5 h71 M58,30.5 h74 M136,30.5 h2 M57,31.5 h76 M57,32.5 h74 M133,32.5 h2 M139,32.5 h4 M55,33.5 h77 M133,33.5 h3 M142,33.5 h1 M53,34.5 h85 M142,34.5 h1 M52,35.5 h2 M56,35.5 h75 M132,35.5 h7 M142,35.5 h1 M51,36.5 h1 M56,36.5 h83 M142,36.5 h2 M50,37.5 h2 M56,37.5 h81 M139,37.5 h1 M142,37.5 h1 M50,38.5 h1 M52,38.5 h1 M54,38.5 h84 M139,38.5 h2 M54,39.5 h88 M49,40.5 h1 M53,40.5 h88 M143,40.5 h1 M145,40.5 h1 M49,41.5 h1 M51,41.5 h91 M50,42.5 h2 M53,42.5 h90 M49,43.5 h93 M144,43.5 h2 M50,44.5 h3 M54,44.5 h66 M122,44.5 h21 M146,44.5 h1 M49,45.5 h72 M123,45.5 h21 M147,45.5 h2 M50,46.5 h72 M124,46.5 h24 M50,47.5 h74 M125,47.5 h25 M50,48.5 h70 M121,48.5 h30 M49,49.5 h1 M52,49.5 h100 M48,50.5 h2 M51,50.5 h70 M127,50.5 h25 M46,51.5 h3 M50,51.5 h44 M97,51.5 h10 M108,51.5 h9 M127,51.5 h18 M147,51.5 h2 M150,51.5 h2 M46,52.5 h1 M50,52.5 h43 M102,52.5 h4 M111,52.5 h6 M128,52.5 h17 M148,52.5 h5 M50,53.5 h40 M104,53.5 h2 M111,53.5 h2 M114,53.5 h8 M128,53.5 h15 M144,53.5 h2 M149,53.5 h4 M49,54.5 h42 M104,54.5 h2 M110,54.5 h14 M129,54.5 h19 M149,54.5 h2 M152,54.5 h1 M51,55.5 h39 M91,55.5 h2 M104,55.5 h2 M110,55.5 h16 M129,55.5 h25 M51,56.5 h37 M92,56.5 h1 M104,56.5 h2 M109,56.5 h18 M129,56.5 h15 M145,56.5 h2 M150,56.5 h4 M49,57.5 h40 M91,57.5 h3 M104,57.5 h17 M125,57.5 h2 M130,57.5 h14 M150,57.5 h4 M48,58.5 h38 M88,58.5 h12 M105,58.5 h19 M130,58.5 h15 M150,58.5 h3 M47,59.5 h54 M107,59.5 h18 M130,59.5 h15 M151,59.5 h2 M46,60.5 h56 M108,60.5 h19 M131,60.5 h14 M151,60.5 h2 M47,61.5 h55 M108,61.5 h12 M125,61.5 h3 M131,61.5 h15 M150,61.5 h3 M48,62.5 h54 M109,62.5 h11 M132,62.5 h17 M150,62.5 h2 M48,63.5 h55 M109,63.5 h12 M132,63.5 h12 M145,63.5 h1 M150,63.5 h2 M47,64.5 h56 M110,64.5 h12 M132,64.5 h12 M145,64.5 h2 M149,64.5 h2 M46,65.5 h57 M110,65.5 h13 M133,65.5 h11 M145,65.5 h2 M149,65.5 h2 M43,66.5 h4 M48,66.5 h54 M112,66.5 h6 M133,66.5 h11 M145,66.5 h2 M43,67.5 h4 M50,67.5 h53 M133,67.5 h8 M142,67.5 h2 M145,67.5 h2 M43,68.5 h5 M49,68.5 h54 M134,68.5 h9 M145,68.5 h2 M44,69.5 h59 M134,69.5 h13 M44,70.5 h6 M51,70.5 h52 M134,70.5 h13 M46,71.5 h57 M134,71.5 h11 M47,72.5 h57 M115,72.5 h2 M135,72.5 h9 M51,73.5 h2 M54,73.5 h28 M83,73.5 h20 M117,73.5 h5 M135,73.5 h9 M145,73.5 h1 M53,74.5 h29 M93,74.5 h10 M118,74.5 h6 M135,74.5 h10 M53,75.5 h29 M93,75.5 h9 M104,75.5 h1 M119,75.5 h7 M136,75.5 h7 M53,76.5 h27 M81,76.5 h1 M96,76.5 h6 M120,76.5 h8 M137,76.5 h6 M52,77.5 h27 M80,77.5 h1 M95,77.5 h5 M105,77.5 h4 M121,77.5 h7 M138,77.5 h8 M53,78.5 h26 M80,78.5 h1 M94,78.5 h5 M104,78.5 h8 M122,78.5 h7 M133,78.5 h1 M139,78.5 h8 M53,79.5 h1 M55,79.5 h25 M92,79.5 h7 M103,79.5 h9 M123,79.5 h7 M133,79.5 h1 M139,79.5 h9 M55,80.5 h25 M91,80.5 h21 M114,80.5 h3 M118,80.5 h1 M124,80.5 h7 M133,80.5 h1 M140,80.5 h7 M54,81.5 h26 M90,81.5 h29 M120,81.5 h4 M125,81.5 h6 M133,81.5 h1 M137,81.5 h3 M142,81.5 h5 M53,82.5 h25 M79,82.5 h1 M89,82.5 h42 M133,82.5 h1 M137,82.5 h8 M53,83.5 h27 M87,83.5 h44 M133,83.5 h1 M136,83.5 h2 M141,83.5 h1 M54,84.5 h17 M72,84.5 h8 M85,84.5 h31 M123,84.5 h8 M133,84.5 h1 M136,84.5 h1 M142,84.5 h1 M56,85.5 h24 M82,85.5 h31 M118,85.5 h4 M123,85.5 h8 M133,85.5 h1 M136,85.5 h3 M142,85.5 h2 M56,86.5 h24 M81,86.5 h50 M133,86.5 h2 M136,86.5 h8 M57,87.5 h15 M73,87.5 h7 M81,87.5 h35 M120,87.5 h11 M133,87.5 h1 M136,87.5 h7 M57,88.5 h12 M70,88.5 h10 M81,88.5 h33 M121,88.5 h10 M132,88.5 h2 M136,88.5 h7 M58,89.5 h11 M70,89.5 h42 M121,89.5 h3 M127,89.5 h4 M132,89.5 h2 M135,89.5 h9 M58,90.5 h9 M68,90.5 h1 M70,90.5 h2 M73,90.5 h36 M111,90.5 h1 M121,90.5 h2 M127,90.5 h4 M132,90.5 h2 M135,90.5 h9 M59,91.5 h9 M69,91.5 h36 M107,91.5 h1 M119,91.5 h3 M127,91.5 h4 M132,91.5 h2 M135,91.5 h9 M59,92.5 h10 M70,92.5 h32 M104,92.5 h1 M116,92.5 h5 M128,92.5 h3 M135,92.5 h9 M60,93.5 h41 M102,93.5 h1 M112,93.5 h7 M128,93.5 h2 M132,93.5 h1 M134,93.5 h7 M142,93.5 h2 M61,94.5 h1 M63,94.5 h38 M105,94.5 h11 M128,94.5 h1 M135,94.5 h5 M142,94.5 h1 M64,95.5 h50 M132,95.5 h1 M135,95.5 h7 M65,96.5 h47 M132,96.5 h2 M136,96.5 h3 M67,97.5 h46 M133,97.5 h1 M138,97.5 h4 M144,97.5 h7 M67,98.5 h49 M129,98.5 h1 M132,98.5 h2 M140,98.5 h4 M145,98.5 h7 M67,99.5 h2 M73,99.5 h42 M131,99.5 h3 M139,99.5 h5 M146,99.5 h7 M68,100.5 h2 M73,100.5 h46 M131,100.5 h2 M139,100.5 h5 M146,100.5 h7 M68,101.5 h3 M72,101.5 h30 M103,101.5 h17 M130,101.5 h4 M140,101.5 h4 M148,101.5 h5 M69,102.5 h51 M130,102.5 h3 M140,102.5 h4 M148,102.5 h5 M70,103.5 h49 M130,103.5 h2 M140,103.5 h5 M146,103.5 h1 M148,103.5 h5 M70,104.5 h48 M130,104.5 h2 M140,104.5 h5 M149,104.5 h4 M69,105.5 h2 M72,105.5 h3 M76,105.5 h42 M130,105.5 h2 M141,105.5 h4 M147,105.5 h1 M149,105.5 h3 M68,106.5 h2 M71,106.5 h1 M74,106.5 h2 M77,106.5 h34 M112,106.5 h5 M130,106.5 h2 M141,106.5 h4 M148,106.5 h4 M72,107.5 h3 M77,107.5 h1 M80,107.5 h30 M129,107.5 h2 M141,107.5 h4 M148,107.5 h4 M71,108.5 h40 M128,108.5 h3 M141,108.5 h4 M146,108.5 h1 M148,108.5 h3 M72,109.5 h40 M128,109.5 h3 M141,109.5 h4 M146,109.5 h5 M73,110.5 h39 M115,110.5 h2 M118,110.5 h1 M127,110.5 h3 M141,110.5 h4 M148,110.5 h3 M152,110.5 h1 M72,111.5 h50 M127,111.5 h3 M141,111.5 h4 M147,111.5 h5 M73,112.5 h8 M82,112.5 h40 M123,112.5 h7 M141,112.5 h5 M148,112.5 h3 M74,113.5 h6 M82,113.5 h3 M87,113.5 h42 M141,113.5 h5 M147,113.5 h5 M81,114.5 h2 M87,114.5 h41 M141,114.5 h5 M148,114.5 h2 M151,114.5 h2 M86,115.5 h2 M89,115.5 h38 M130,115.5 h1 M141,115.5 h12 M85,116.5 h45 M141,116.5 h11 M85,117.5 h40 M126,117.5 h5 M141,117.5 h11 M85,118.5 h38 M125,118.5 h7 M141,118.5 h10 M81,119.5 h1 M85,119.5 h4 M90,119.5 h31 M124,119.5 h1 M126,119.5 h6 M140,119.5 h13 M81,120.5 h1 M85,120.5 h3 M91,120.5 h29 M126,120.5 h8 M139,120.5 h14 M156,120.5 h1 M81,121.5 h1 M84,121.5 h4 M91,121.5 h29 M126,121.5 h7 M138,121.5 h14 M81,122.5 h1 M86,122.5 h2 M92,122.5 h27 M126,122.5 h22 M149,122.5 h3 M154,122.5 h2 M85,123.5 h2 M92,123.5 h27 M126,123.5 h26 M155,123.5 h1 M81,124.5 h1 M85,124.5 h1 M93,124.5 h26 M126,124.5 h26 M85,125.5 h1 M93,125.5 h26 M126,125.5 h26 M81,126.5 h1 M94,126.5 h25 M126,126.5 h22 M149,126.5 h2 M94,127.5 h26 M121,127.5 h1 M126,127.5 h20 M147,127.5 h5 M74,128.5 h2 M80,128.5 h1 M82,128.5 h1 M95,128.5 h56 M152,128.5 h2 M74,129.5 h2 M82,129.5 h1 M89,129.5 h1 M95,129.5 h56 M75,130.5 h1 M88,130.5 h2 M93,130.5 h2 M96,130.5 h56 M74,131.5 h3 M89,131.5 h1 M92,131.5 h3 M96,131.5 h53 M151,131.5 h1 M75,132.5 h2 M82,132.5 h1 M93,132.5 h2 M96,132.5 h52 M75,133.5 h3 M82,133.5 h1 M94,133.5 h1 M97,133.5 h51 M75,134.5 h4 M80,134.5 h3 M92,134.5 h2 M95,134.5 h1 M97,134.5 h51 M76,135.5 h2 M80,135.5 h1 M90,135.5 h1 M92,135.5 h2 M95,135.5 h1 M97,135.5 h50 M155,135.5 h1 M76,136.5 h3 M91,136.5 h1 M94,136.5 h2 M98,136.5 h49 M154,136.5 h1 M76,137.5 h5 M91,137.5 h3 M95,137.5 h1 M98,137.5 h49 M154,137.5 h1 M77,138.5 h4 M92,138.5 h1 M94,138.5 h1 M96,138.5 h47 M144,138.5 h2 M77,139.5 h2 M80,139.5 h3 M92,139.5 h1 M94,139.5 h4 M99,139.5 h44 M144,139.5 h1 M77,140.5 h3 M94,140.5 h1 M97,140.5 h46 M154,140.5 h1 M77,141.5 h4 M82,141.5 h1 M93,141.5 h1 M97,141.5 h2 M100,141.5 h44 M78,142.5 h3 M93,142.5 h1 M97,142.5 h2 M100,142.5 h42 M79,143.5 h2 M93,143.5 h1 M97,143.5 h3 M101,143.5 h41 M78,144.5 h5 M94,144.5 h1 M98,144.5 h43 M150,144.5 h1 M152,144.5 h2 M79,145.5 h6 M99,145.5 h2 M102,145.5 h39 M151,145.5 h2 M78,146.5 h4 M98,146.5 h43 M153,146.5 h1 M79,147.5 h4 M98,147.5 h42 M150,147.5 h1 M152,147.5 h2 M80,148.5 h2 M98,148.5 h1 M100,148.5 h40 M149,148.5 h1 M151,148.5 h2 M80,149.5 h2 M96,149.5 h1 M100,149.5 h3 M104,149.5 h36 M150,149.5 h3 M80,150.5 h2 M99,150.5 h1 M101,150.5 h38 M149,150.5 h2 M80,151.5 h2 M102,151.5 h2 M105,151.5 h34 M151,151.5 h1 M172,151.5 h1 M185,151.5 h1 M80,152.5 h2 M83,152.5 h1 M86,152.5 h1 M103,152.5 h35 M149,152.5 h4 M185,152.5 h1 M80,153.5 h3 M86,153.5 h2 M103,153.5 h2 M106,153.5 h32 M149,153.5 h3 M184,153.5 h1 M223,153.5 h1 M81,154.5 h2 M84,154.5 h2 M105,154.5 h33 M149,154.5 h2 M169,154.5 h2 M182,154.5 h1 M184,154.5 h1 M223,154.5 h1 M226,154.5 h1 M86,155.5 h1 M105,155.5 h1 M107,155.5 h30 M149,155.5 h4 M169,155.5 h1 M183,155.5 h1 M83,156.5 h1 M86,156.5 h1 M107,156.5 h30 M149,156.5 h3 M168,156.5 h3 M181,156.5 h2 M106,157.5 h1 M108,157.5 h28 M148,157.5 h4 M168,157.5 h3 M88,158.5 h1 M102,158.5 h1 M109,158.5 h27 M147,158.5 h4 M167,158.5 h4 M179,158.5 h3 M86,159.5 h3 M109,159.5 h26 M147,159.5 h4 M166,159.5 h4 M177,159.5 h1 M179,159.5 h3 M86,160.5 h2 M110,160.5 h25 M147,160.5 h3 M166,160.5 h4 M175,160.5 h6 M76,161.5 h1 M111,161.5 h23 M147,161.5 h3 M166,161.5 h4 M174,161.5 h6 M112,162.5 h21 M147,162.5 h3 M165,162.5 h4 M174,162.5 h5 M86,163.5 h1 M112,163.5 h21 M146,163.5 h4 M165,163.5 h4 M173,163.5 h6 M74,164.5 h1 M87,164.5 h1 M90,164.5 h1 M113,164.5 h19 M145,164.5 h4 M165,164.5 h4 M172,164.5 h7 M76,165.5 h1 M87,165.5 h1 M114,165.5 h17 M145,165.5 h4 M165,165.5 h4 M171,165.5 h7 M200,165.5 h7 M209,165.5 h1 M75,166.5 h3 M115,166.5 h15 M144,166.5 h4 M165,166.5 h4 M171,166.5 h6 M197,166.5 h13 M75,167.5 h3 M113,167.5 h1 M117,167.5 h13 M145,167.5 h2 M165,167.5 h3 M171,167.5 h6 M194,167.5 h8 M204,167.5 h3 M76,168.5 h2 M119,168.5 h10 M145,168.5 h4 M165,168.5 h3 M171,168.5 h5 M191,168.5 h4 M75,169.5 h3 M121,169.5 h7 M145,169.5 h3 M165,169.5 h3 M170,169.5 h5 M189,169.5 h2 M75,170.5 h3 M122,170.5 h4 M144,170.5 h4 M165,170.5 h3 M170,170.5 h5 M186,170.5 h3 M76,171.5 h2 M124,171.5 h1 M143,171.5 h5 M165,171.5 h3 M170,171.5 h4 M184,171.5 h3 M76,172.5 h2 M143,172.5 h5 M165,172.5 h3 M170,172.5 h4 M182,172.5 h3 M71,173.5 h1 M77,173.5 h1 M143,173.5 h4 M166,173.5 h2 M169,173.5 h5 M181,173.5 h2 M77,174.5 h2 M142,174.5 h4 M166,174.5 h2 M169,174.5 h4 M179,174.5 h3 M77,175.5 h1 M142,175.5 h1 M144,175.5 h2 M166,175.5 h2 M169,175.5 h4 M178,175.5 h3 M71,176.5 h1 M73,176.5 h1 M143,176.5 h3 M166,176.5 h2 M169,176.5 h4 M177,176.5 h2 M72,177.5 h1 M75,177.5 h1 M77,177.5 h2 M108,177.5 h1 M142,177.5 h3 M166,177.5 h2 M169,177.5 h4 M176,177.5 h2 M64,178.5 h1 M73,178.5 h3 M77,178.5 h2 M142,178.5 h6 M167,178.5 h1 M169,178.5 h4 M175,178.5 h2 M64,179.5 h2 M71,179.5 h5 M77,179.5 h2 M142,179.5 h4 M167,179.5 h2 M170,179.5 h2 M175,179.5 h2 M64,180.5 h2 M71,180.5 h4 M78,180.5 h1 M143,180.5 h2 M167,180.5 h2 M170,180.5 h3 M174,180.5 h2 M64,181.5 h2 M73,181.5 h6 M92,181.5 h1 M141,181.5 h5 M167,181.5 h2 M170,181.5 h3 M174,181.5 h2 M13,182.5 h3 M65,182.5 h3 M74,182.5 h5 M143,182.5 h3 M168,182.5 h8 M9,183.5 h7 M66,183.5 h2 M74,183.5 h5 M141,183.5 h5 M168,183.5 h2 M171,183.5 h4 M2,184.5 h13 M66,184.5 h3 M73,184.5 h6 M140,184.5 h3 M168,184.5 h6 M0,185.5 h14 M48,185.5 h1 M67,185.5 h2 M73,185.5 h6 M142,185.5 h2 M168,185.5 h5 M0,186.5 h8 M67,186.5 h3 M72,186.5 h7 M142,186.5 h3 M167,186.5 h6 M0,187.5 h2 M4,187.5 h1 M68,187.5 h3 M72,187.5 h7 M142,187.5 h4 M167,187.5 h1 M169,187.5 h3 M0,188.5 h1 M57,188.5 h5 M69,188.5 h2 M72,188.5 h8 M142,188.5 h3 M168,188.5 h5 M59,189.5 h5 M65,189.5 h1 M67,189.5 h1 M69,189.5 h3 M73,189.5 h7 M141,189.5 h3 M167,189.5 h7 M61,190.5 h11 M73,190.5 h7 M140,190.5 h3 M167,190.5 h8 M57,191.5 h1 M63,191.5 h10 M74,191.5 h6 M139,191.5 h3 M143,191.5 h1 M168,191.5 h7 M42,192.5 h1 M57,192.5 h6 M65,192.5 h8 M74,192.5 h6 M140,192.5 h5 M168,192.5 h7 M42,193.5 h1 M58,193.5 h22 M139,193.5 h5 M167,193.5 h8 M9,194.5 h3 M42,194.5 h2 M60,194.5 h20 M141,194.5 h1 M168,194.5 h7 M9,195.5 h2 M42,195.5 h2 M65,195.5 h15 M140,195.5 h5 M168,195.5 h7 M42,196.5 h3 M73,196.5 h8 M138,196.5 h6 M167,196.5 h8 M41,197.5 h4 M57,197.5 h3 M72,197.5 h9 M138,197.5 h2 M167,197.5 h8 M41,198.5 h5 M60,198.5 h7 M71,198.5 h2 M74,198.5 h7 M143,198.5 h1 M167,198.5 h8 M41,199.5 h6 M62,199.5 h7 M75,199.5 h6 M139,199.5 h3 M168,199.5 h7 M24,200.5 h1 M41,200.5 h1 M44,200.5 h3 M64,200.5 h5 M76,200.5 h5 M136,200.5 h2 M143,200.5 h1 M167,200.5 h8 M23,201.5 h5 M45,201.5 h3 M68,201.5 h3 M73,201.5 h1 M75,201.5 h6 M142,201.5 h1 M169,201.5 h6 M23,202.5 h1 M27,202.5 h3 M46,202.5 h2 M70,202.5 h12 M139,202.5 h4 M169,202.5 h6" stroke="#808080" stroke-width="1" />
  </g>
</svg>
