<?xml version="1.0" standalone="no"?>
<!DOCTYPE svg PUBLIC "-//W3C//DTD SVG 20010904//EN"
 "http://www.w3.org/TR/2001/REC-SVG-20010904/DTD/svg10.dtd">
<svg version="1.0" xmlns="http://www.w3.org/2000/svg"
 width="2552.000000pt" height="3295.000000pt" viewBox="0 0 2552.000000 3295.000000"
 preserveAspectRatio="xMidYMid meet">
<metadata>
Created by potrace 1.16, written by Peter Selinger 2001-2019
</metadata>
<g transform="translate(0.000000,3295.000000) scale(0.100000,-0.100000)"
fill="#000000" stroke="none">
<path d="M14296 29674 c-5 -14 -9 -15 -15 -5 -6 10 -56 11 -232 8 -123 -3
-254 -5 -292 -6 -37 0 -73 -3 -79 -7 -7 -4 -33 -6 -60 -5 -26 1 -52 -1 -59 -4
-11 -7 -36 -10 -202 -19 -54 -3 -103 -8 -108 -11 -5 -4 -18 -4 -28 0 -11 3
-22 1 -26 -5 -4 -7 -18 -9 -30 -6 -13 3 -27 1 -30 -5 -4 -6 -14 -8 -22 -5 -9
4 -22 1 -29 -5 -8 -6 -20 -9 -29 -6 -8 4 -17 1 -21 -4 -3 -6 -15 -9 -25 -6
-10 3 -21 1 -24 -3 -3 -4 -14 -6 -25 -3 -11 3 -20 1 -20 -5 0 -7 -15 -9 -40
-6 -25 3 -40 1 -40 -6 0 -7 -8 -9 -19 -5 -11 3 -22 1 -25 -4 -4 -6 -13 -8 -21
-4 -8 3 -15 0 -15 -7 0 -6 -5 -8 -10 -5 -6 4 -16 2 -23 -3 -7 -5 -19 -9 -27
-10 -48 -1 -218 -46 -355 -94 -33 -11 -72 -23 -87 -25 -16 -3 -28 -10 -28 -15
0 -5 -8 -8 -17 -6 -10 1 -24 -1 -30 -5 -7 -5 -13 -5 -13 -1 0 3 -7 1 -15 -6
-8 -7 -15 -9 -15 -6 0 4 -10 0 -22 -8 -12 -9 -30 -16 -40 -16 -10 0 -18 -5
-18 -11 0 -6 -7 -8 -16 -5 -9 3 -28 -2 -42 -13 -15 -10 -32 -16 -38 -14 -6 2
-17 -3 -24 -12 -7 -8 -21 -15 -32 -15 -20 0 -104 -35 -126 -53 -8 -6 -23 -12
-34 -14 -11 -2 -32 -10 -47 -18 -24 -13 -100 -48 -111 -51 -34 -10 -50 -18
-50 -25 0 -5 -12 -14 -27 -19 -46 -17 -78 -34 -86 -47 -4 -7 -16 -13 -25 -13
-9 0 -46 -18 -82 -40 -36 -22 -70 -40 -76 -40 -7 0 -14 -7 -18 -15 -3 -8 -12
-15 -21 -15 -8 0 -15 -4 -15 -10 0 -5 -9 -10 -19 -10 -11 0 -26 -6 -33 -13 -7
-7 -38 -28 -68 -46 -30 -19 -57 -37 -60 -41 -3 -3 -12 -9 -20 -12 -9 -3 -47
-28 -84 -54 -37 -27 -82 -57 -99 -67 -17 -11 -53 -38 -79 -62 -26 -23 -63 -50
-82 -59 -19 -9 -38 -21 -42 -27 -3 -6 -74 -67 -157 -136 -84 -69 -192 -162
-242 -206 -101 -91 -357 -345 -425 -423 -128 -145 -157 -178 -246 -284 -53
-63 -109 -130 -125 -148 -16 -19 -29 -36 -29 -39 0 -12 -83 -122 -96 -127 -8
-3 -14 -10 -14 -16 0 -6 -24 -46 -53 -88 -85 -124 -102 -147 -109 -150 -5 -2
-8 -10 -8 -18 0 -9 -13 -32 -30 -52 -27 -35 -65 -96 -92 -152 -7 -14 -24 -43
-39 -65 -14 -22 -51 -89 -81 -150 -30 -60 -59 -119 -65 -130 -19 -33 -83 -173
-83 -181 0 -4 -6 -15 -14 -23 -8 -9 -21 -36 -29 -61 -26 -75 -84 -222 -106
-267 -12 -23 -21 -48 -21 -55 0 -6 -13 -48 -29 -92 -55 -154 -83 -241 -102
-321 -11 -44 -40 -160 -65 -257 -24 -98 -44 -190 -44 -205 0 -16 -7 -53 -15
-83 -18 -67 -31 -139 -51 -290 -8 -63 -24 -182 -35 -265 -18 -125 -22 -221
-26 -570 -4 -280 -1 -472 7 -575 11 -142 17 -202 50 -450 6 -47 25 -161 41
-255 30 -162 44 -228 74 -340 7 -27 17 -68 21 -90 4 -22 9 -44 10 -50 2 -5 8
-28 13 -50 24 -95 51 -191 60 -210 5 -11 22 -60 36 -110 15 -49 30 -94 34
-100 4 -5 18 -39 31 -75 12 -36 26 -70 31 -76 5 -6 23 -51 40 -100 37 -107 79
-204 96 -222 7 -7 13 -19 13 -27 0 -7 34 -80 75 -162 41 -83 75 -155 75 -161
0 -7 4 -12 8 -12 5 0 16 -19 27 -42 10 -24 33 -64 51 -89 19 -26 34 -51 34
-57 0 -5 29 -53 64 -105 35 -53 67 -104 70 -115 4 -11 13 -26 21 -32 8 -7 15
-21 15 -31 0 -12 5 -16 15 -13 8 4 15 1 15 -5 0 -7 21 -44 47 -84 46 -71 52
-80 93 -124 11 -13 20 -26 20 -29 0 -5 87 -122 100 -134 3 -3 24 -27 45 -55
22 -27 47 -56 56 -62 9 -7 33 -37 53 -68 21 -30 41 -55 45 -55 4 0 30 -28 58
-62 28 -35 98 -111 155 -170 57 -59 116 -124 131 -143 16 -19 33 -35 38 -35 5
0 36 -27 67 -60 32 -33 63 -60 70 -60 6 0 23 -16 38 -36 15 -19 39 -41 53 -49
14 -7 50 -36 80 -64 29 -28 59 -51 65 -51 7 0 23 -14 36 -30 30 -37 340 -266
412 -305 10 -5 18 -13 18 -17 0 -5 5 -8 11 -8 11 0 82 -50 87 -62 2 -5 12 -8
23 -8 10 0 19 -4 19 -10 0 -5 6 -10 13 -10 7 0 23 -9 35 -20 12 -11 26 -20 32
-20 11 0 62 -34 88 -58 8 -7 18 -10 22 -7 5 3 19 -4 30 -15 21 -21 68 -45 83
-42 4 1 17 -7 28 -17 12 -11 46 -29 75 -41 30 -12 54 -26 54 -31 0 -5 5 -9 10
-9 6 0 53 -20 104 -45 52 -25 97 -45 100 -45 4 0 23 -11 44 -23 20 -13 43 -22
50 -20 6 3 12 0 12 -5 0 -5 14 -12 32 -16 17 -3 55 -17 84 -31 29 -14 58 -25
64 -25 6 0 28 -9 50 -20 22 -11 67 -26 100 -34 34 -8 68 -20 76 -26 8 -7 14
-10 14 -7 0 3 12 0 27 -8 15 -8 31 -12 35 -8 5 3 15 -3 22 -13 9 -11 21 -15
35 -11 12 3 34 -1 49 -9 16 -7 37 -15 48 -17 10 -2 32 -9 48 -16 16 -6 31 -9
34 -6 3 2 11 0 19 -7 7 -6 16 -8 19 -5 3 3 32 -1 65 -9 34 -8 65 -12 70 -8 5
3 9 1 9 -4 0 -13 109 -39 194 -46 22 -2 48 -7 57 -11 9 -3 27 -7 41 -9 13 -1
29 -6 36 -10 6 -4 58 -9 114 -12 57 -3 110 -8 118 -11 8 -3 27 -5 43 -4 17 2
27 -2 27 -11 0 -11 2 -10 9 1 5 8 11 9 15 3 3 -6 15 -8 26 -5 11 3 28 2 37 -2
10 -4 35 -7 55 -6 21 2 43 -1 49 -5 7 -4 41 -6 76 -5 34 1 63 -1 63 -6 0 -4
44 -7 97 -6 63 2 107 -1 122 -10 19 -9 25 -9 28 0 4 12 15 12 175 -2 26 -2 51
1 54 7 4 5 49 9 108 8 55 -2 109 1 119 5 10 4 38 5 63 2 24 -2 47 0 50 5 4 6
26 8 50 5 27 -3 47 0 52 7 4 6 27 12 52 12 131 4 290 18 290 25 0 5 7 6 15 3
8 -3 20 -2 27 2 7 5 23 7 35 6 11 -2 24 1 27 6 3 6 15 8 26 5 12 -3 20 0 20 7
0 8 8 10 24 6 14 -3 28 -1 31 4 4 6 11 8 16 4 5 -3 16 0 24 6 12 10 15 10 15
-1 0 -10 3 -10 11 -2 6 6 17 9 24 7 7 -3 16 -1 19 5 4 6 13 8 20 5 8 -3 17 0
21 5 3 6 11 9 16 5 5 -3 16 0 24 6 8 7 15 9 15 5 0 -4 7 -2 15 5 8 6 19 9 25
5 6 -4 16 -2 23 3 7 5 28 9 48 9 19 0 41 3 47 7 7 4 33 13 59 21 27 7 82 23
123 35 41 12 79 25 85 30 11 9 84 30 120 34 11 2 35 10 53 20 17 9 32 14 32
11 0 -3 10 1 23 9 20 13 122 50 140 51 4 0 11 6 16 13 4 7 12 12 17 10 5 -1
19 3 30 10 12 6 24 9 27 6 3 -3 23 3 44 14 55 29 191 92 205 95 6 1 37 16 69
34 32 17 67 34 78 38 12 3 21 11 21 16 0 5 7 9 15 9 20 0 170 80 233 124 28
20 56 36 62 36 11 0 86 48 149 95 19 14 40 25 46 25 7 0 23 10 37 23 38 34
117 87 131 87 7 0 18 9 25 20 7 12 17 18 22 15 6 -3 10 1 10 9 0 8 8 17 18 20
9 3 31 18 48 33 16 16 42 34 57 40 15 7 27 17 27 23 0 5 6 10 13 10 6 0 34 21
61 45 27 25 52 45 56 45 3 0 32 24 62 53 31 29 60 51 65 50 4 -1 19 13 33 32
14 19 29 35 34 35 5 0 24 15 42 33 18 17 95 94 171 169 76 75 165 167 198 203
33 37 80 88 104 113 24 26 57 66 73 90 16 23 49 62 73 86 25 24 45 47 45 51 0
3 20 30 45 58 67 77 245 329 245 347 0 5 8 15 18 22 10 7 30 33 43 58 13 24
30 50 36 58 7 7 16 24 19 37 3 13 12 26 20 29 8 3 14 12 14 21 0 8 4 15 8 15
4 0 21 25 36 55 16 30 37 63 48 74 10 11 18 26 18 32 0 7 6 20 14 28 15 17 86
154 86 167 0 4 9 17 19 28 10 12 36 59 56 106 51 117 62 141 78 170 17 29 45
97 82 195 14 39 34 88 45 110 10 22 35 90 55 150 19 61 39 119 44 130 8 19 31
93 66 215 9 30 21 71 26 90 6 20 12 49 14 65 1 17 10 55 19 85 9 30 23 87 30
125 8 39 26 126 39 195 32 156 62 347 81 510 60 509 39 1372 -43 1780 -5 25
-15 86 -22 135 -14 98 -13 93 -21 115 -5 13 -31 141 -44 215 -12 74 -110 428
-129 471 -8 17 -21 55 -29 85 -24 86 -86 262 -102 286 -8 12 -14 28 -14 34 0
7 -8 30 -19 53 -10 23 -33 77 -51 121 -18 44 -39 87 -47 96 -7 9 -15 26 -18
38 -2 11 -7 27 -12 34 -4 6 -8 18 -9 25 -2 8 -9 21 -16 30 -8 10 -25 41 -38
70 -13 28 -27 52 -32 52 -4 0 -8 9 -8 19 0 11 -6 26 -13 33 -7 7 -18 27 -24
44 -6 17 -28 55 -49 84 -21 29 -39 60 -40 68 -2 7 -10 22 -18 31 -9 10 -16 21
-16 25 0 4 -4 12 -10 19 -26 31 -110 166 -110 176 0 6 -3 11 -7 11 -5 0 -26
28 -48 63 -42 66 -151 215 -169 232 -6 6 -17 21 -24 35 -7 14 -38 52 -68 84
-29 32 -54 62 -54 65 0 4 -20 27 -45 53 -25 26 -45 51 -45 55 0 5 -8 16 -17
24 -10 9 -38 40 -63 70 -25 30 -77 88 -117 129 -40 41 -73 80 -73 87 0 7 -4
12 -8 10 -9 -2 -112 103 -112 116 0 4 -6 7 -13 7 -8 0 -40 27 -71 60 -32 33
-61 60 -66 60 -4 0 -20 14 -33 30 -14 17 -30 30 -35 30 -5 0 -22 16 -36 35
-15 19 -32 35 -39 35 -7 0 -18 9 -25 20 -7 11 -19 20 -27 20 -7 0 -22 13 -31
29 -10 17 -21 28 -24 26 -4 -3 -15 4 -25 15 -10 11 -22 20 -26 20 -4 0 -20 12
-36 28 -60 57 -101 90 -106 86 -3 -3 -19 8 -35 25 -16 17 -33 31 -38 31 -5 0
-32 20 -59 45 -28 25 -56 45 -62 45 -7 0 -13 4 -13 9 0 5 -9 13 -21 16 -21 7
-45 24 -80 57 -9 9 -20 13 -24 10 -4 -4 -11 1 -16 11 -6 9 -14 17 -20 17 -5 0
-19 9 -31 20 -12 11 -28 20 -35 20 -7 0 -13 4 -13 9 0 5 -13 14 -30 20 -16 5
-30 15 -30 20 0 6 -9 11 -19 11 -10 0 -21 7 -25 15 -3 8 -11 15 -19 15 -7 0
-19 6 -25 13 -7 6 -17 13 -22 13 -6 1 -14 2 -20 3 -5 0 -10 8 -10 16 0 8 -7
15 -16 15 -8 0 -22 7 -30 15 -8 8 -21 12 -29 9 -8 -4 -15 -1 -15 5 0 6 -9 11
-19 11 -11 0 -23 4 -26 10 -3 5 -32 22 -63 37 -31 15 -63 33 -70 40 -7 7 -22
13 -32 13 -10 0 -22 5 -25 10 -3 6 -16 10 -28 10 -12 1 -35 11 -51 24 -16 14
-35 22 -42 19 -7 -3 -26 4 -41 14 -33 23 -120 64 -130 61 -5 -1 -30 9 -58 22
-27 13 -54 24 -60 25 -11 1 -26 8 -92 36 -23 11 -66 24 -95 30 -29 6 -58 15
-64 20 -6 5 -14 6 -17 2 -4 -3 -7 -1 -7 6 0 7 -7 11 -15 8 -8 -4 -17 -2 -20 3
-3 5 -12 7 -19 4 -8 -3 -17 -1 -20 5 -4 6 -13 8 -21 4 -8 -3 -15 -1 -15 4 0 6
-13 9 -30 8 -16 -1 -30 2 -30 7 0 4 -4 8 -9 8 -5 0 -22 5 -38 11 -15 6 -30 11
-33 11 -3 1 -32 7 -65 15 -33 8 -72 15 -87 15 -16 1 -28 5 -28 9 0 4 -13 7
-29 7 -15 -1 -34 3 -42 8 -8 5 -18 9 -24 10 -27 3 -55 18 -55 28 0 6 -5 3 -11
-7 -8 -14 -14 -16 -25 -6 -8 6 -23 9 -34 6 -11 -3 -23 -1 -26 5 -3 5 -12 7
-20 4 -8 -3 -14 -1 -14 5 0 6 -10 9 -22 8 -13 -1 -31 1 -40 5 -9 4 -22 5 -28
1 -5 -3 -10 -1 -10 6 0 8 -11 10 -35 6 -22 -4 -35 -2 -35 5 0 6 -12 8 -30 5
-16 -4 -30 -3 -30 2 0 5 -25 8 -56 7 -31 -1 -104 4 -163 11 -58 7 -162 15
-230 18 -72 3 -128 10 -132 16 -4 7 -9 4 -13 -7z m66 -140 c3 -3 62 -6 130 -8
69 -2 129 -6 134 -9 6 -3 40 -5 77 -4 36 0 70 -2 73 -6 4 -4 18 -4 30 -1 15 4
24 2 24 -6 0 -7 13 -10 33 -9 18 2 38 -1 45 -5 7 -4 24 -5 38 -2 15 4 24 2 24
-5 0 -7 9 -9 25 -5 16 4 25 2 25 -5 0 -7 9 -9 24 -5 14 3 28 1 32 -5 3 -6 15
-9 25 -6 11 3 19 1 19 -3 0 -5 14 -7 32 -5 18 2 38 -1 45 -6 6 -6 17 -8 22 -5
5 4 13 2 16 -4 4 -6 15 -8 26 -5 11 4 19 2 19 -5 0 -7 8 -9 20 -5 11 4 20 2
20 -4 0 -6 10 -10 23 -10 60 2 109 -10 334 -80 73 -23 139 -41 148 -41 8 0 15
-4 15 -10 0 -5 7 -7 15 -4 8 4 22 1 29 -6 8 -6 30 -13 48 -15 18 -3 34 -9 36
-15 2 -5 12 -10 22 -10 10 0 22 -5 25 -10 4 -6 10 -8 15 -5 5 3 32 -6 61 -20
29 -14 54 -23 57 -21 2 3 20 -4 39 -15 20 -11 38 -18 41 -15 3 3 19 -5 36 -17
17 -13 55 -32 84 -42 28 -11 52 -22 52 -26 0 -3 14 -9 31 -13 17 -3 54 -20 81
-38 28 -18 55 -33 62 -33 17 0 76 -29 76 -37 0 -5 7 -8 15 -8 8 0 15 -4 15 -9
0 -5 13 -11 29 -14 16 -3 36 -13 44 -22 9 -8 20 -15 26 -15 6 0 11 -4 11 -10
0 -5 9 -10 20 -10 11 0 20 -4 20 -10 0 -5 6 -10 13 -10 7 0 22 -8 33 -17 10
-10 27 -19 36 -21 10 -2 29 -14 42 -27 13 -13 45 -34 70 -46 25 -11 46 -25 46
-30 0 -5 6 -9 14 -9 8 0 16 -7 20 -15 3 -8 12 -15 21 -15 8 0 15 -4 15 -10 0
-5 6 -10 14 -10 8 0 16 -3 18 -7 5 -11 98 -75 98 -68 0 4 23 -16 51 -44 28
-28 58 -51 65 -51 8 0 17 -7 20 -15 4 -8 12 -15 18 -15 7 0 25 -13 41 -30 16
-16 35 -30 42 -30 7 0 13 -5 13 -10 0 -6 8 -14 18 -17 9 -4 35 -26 57 -50 22
-24 45 -43 50 -43 9 0 33 -21 83 -72 15 -16 30 -28 35 -28 11 0 77 -71 77 -83
0 -4 4 -6 9 -3 4 3 31 -18 59 -47 28 -29 73 -71 100 -94 28 -24 63 -61 79 -83
15 -22 34 -40 41 -40 6 0 12 -4 12 -8 0 -5 28 -38 63 -74 95 -101 117 -126
117 -133 0 -5 50 -64 189 -224 30 -35 61 -75 69 -90 7 -14 28 -42 46 -61 34
-35 88 -110 154 -210 19 -30 38 -57 42 -60 4 -3 17 -25 31 -50 13 -25 31 -52
39 -62 8 -9 24 -34 35 -55 11 -21 26 -44 32 -51 7 -7 13 -18 13 -23 0 -6 13
-29 28 -52 16 -23 50 -85 77 -137 26 -52 50 -97 54 -100 3 -3 16 -27 29 -55
13 -27 41 -86 62 -130 58 -119 87 -187 108 -252 11 -33 30 -79 42 -104 13 -24
27 -57 31 -74 4 -16 20 -66 35 -110 15 -44 30 -87 32 -95 7 -21 8 -22 16 -45
30 -78 38 -102 41 -125 2 -14 13 -61 25 -105 13 -44 26 -98 31 -120 4 -22 18
-76 29 -120 12 -44 24 -91 26 -105 13 -69 53 -319 59 -370 2 -19 9 -73 15
-120 6 -47 18 -139 26 -205 20 -161 31 -586 22 -930 -5 -216 -12 -325 -33
-480 -14 -110 -28 -213 -30 -230 -23 -183 -62 -396 -92 -505 -8 -30 -19 -73
-24 -95 -4 -22 -18 -71 -30 -110 -12 -38 -27 -95 -34 -125 -7 -30 -19 -71 -28
-90 -8 -19 -21 -55 -28 -80 -7 -25 -16 -49 -20 -55 -4 -5 -10 -26 -14 -45 -8
-42 -40 -133 -62 -174 -29 -56 -33 -66 -33 -77 0 -6 -6 -25 -14 -42 -8 -18
-26 -61 -40 -96 -15 -36 -34 -76 -44 -90 -9 -14 -17 -30 -18 -36 -4 -36 -189
-385 -295 -555 -5 -8 -19 -34 -31 -57 -12 -24 -26 -43 -30 -43 -4 0 -19 -23
-34 -51 -14 -29 -50 -84 -80 -123 -30 -39 -63 -90 -74 -113 -11 -24 -23 -43
-28 -43 -4 0 -18 -17 -32 -37 -14 -20 -30 -41 -35 -47 -6 -6 -36 -45 -67 -86
-76 -101 -115 -148 -237 -287 -104 -117 -499 -517 -518 -524 -6 -2 -59 -47
-118 -99 -58 -52 -120 -103 -136 -113 -16 -11 -29 -23 -29 -28 0 -5 -7 -9 -15
-9 -8 0 -15 -4 -15 -10 0 -5 -6 -10 -13 -10 -8 0 -38 -22 -68 -50 -30 -27 -73
-59 -96 -70 -24 -11 -43 -24 -43 -28 0 -5 -12 -15 -27 -23 -16 -7 -45 -28 -66
-46 -20 -18 -42 -33 -48 -33 -6 0 -30 -13 -54 -30 -24 -16 -48 -30 -54 -30 -6
0 -11 -4 -11 -9 0 -10 -47 -42 -66 -45 -7 -1 -21 -9 -31 -18 -10 -9 -49 -32
-88 -52 -38 -20 -77 -41 -85 -46 -8 -5 -42 -22 -75 -38 -33 -16 -76 -39 -95
-51 -42 -25 -78 -41 -104 -47 -10 -2 -27 -11 -37 -20 -11 -10 -22 -14 -26 -11
-3 4 -15 0 -25 -10 -10 -9 -18 -12 -18 -8 0 4 -9 0 -19 -9 -11 -10 -25 -15
-30 -11 -6 3 -14 0 -17 -8 -3 -8 -31 -22 -62 -31 -52 -16 -100 -34 -144 -57
-10 -5 -22 -9 -27 -9 -5 0 -26 -8 -47 -17 -22 -9 -41 -17 -44 -18 -3 -1 -17
-5 -32 -9 -16 -5 -28 -12 -28 -16 0 -4 -16 -6 -35 -4 -19 1 -35 -1 -35 -6 0
-7 -41 -23 -65 -25 -5 0 -14 -3 -20 -7 -18 -11 -218 -68 -223 -63 -3 2 -14 -2
-26 -10 -11 -8 -42 -15 -68 -15 -26 0 -49 -4 -53 -10 -3 -5 -12 -7 -20 -3 -8
3 -15 0 -15 -6 0 -6 -6 -8 -14 -5 -8 3 -17 1 -20 -5 -4 -6 -13 -8 -20 -5 -8 3
-17 0 -21 -5 -3 -6 -11 -9 -16 -6 -5 4 -15 3 -21 -2 -15 -9 -48 -14 -100 -15
-21 0 -38 -4 -38 -10 0 -5 -9 -7 -19 -3 -11 3 -22 1 -26 -5 -4 -6 -15 -8 -25
-5 -10 3 -21 1 -25 -5 -4 -7 -18 -9 -30 -6 -13 3 -27 1 -30 -5 -4 -6 -14 -8
-22 -5 -9 4 -22 1 -29 -5 -8 -6 -25 -8 -39 -5 -14 4 -31 3 -38 -1 -7 -4 -39
-8 -72 -8 -79 -1 -268 -16 -279 -23 -5 -3 -38 -4 -74 -3 -36 1 -68 -1 -71 -6
-8 -11 -588 2 -711 16 -52 6 -137 11 -187 11 -58 0 -93 4 -93 10 0 7 -13 8
-34 5 -19 -4 -36 -2 -40 3 -3 6 -15 8 -26 5 -11 -3 -20 0 -20 6 0 6 -11 8 -30
5 -17 -4 -36 -2 -43 5 -8 6 -17 8 -20 5 -3 -3 -12 -2 -19 2 -7 5 -23 7 -35 5
-13 -1 -23 1 -23 6 0 4 -25 9 -55 9 -30 1 -61 7 -69 13 -7 6 -20 9 -29 5 -8
-3 -18 -1 -21 5 -4 6 -13 8 -21 4 -8 -3 -15 0 -15 7 0 7 -7 10 -15 7 -8 -4
-37 1 -65 9 -28 8 -59 14 -68 12 -9 -1 -22 1 -28 5 -22 13 -138 46 -146 41 -4
-3 -8 0 -8 6 0 8 -9 10 -25 6 -14 -4 -25 -3 -25 1 0 11 -87 46 -98 39 -6 -3
-15 1 -22 9 -7 8 -27 15 -44 15 -17 1 -49 9 -71 20 -22 11 -47 19 -55 20 -9 0
-21 5 -28 12 -6 6 -26 13 -44 15 -17 2 -34 7 -37 11 -4 5 -50 25 -103 47 -54
21 -98 42 -98 48 0 5 -9 7 -20 4 -10 -3 -20 -2 -22 2 -5 9 -109 60 -141 67
-15 3 -34 16 -42 28 -9 11 -19 20 -23 20 -20 -4 -97 34 -119 59 -9 9 -26 17
-38 17 -13 0 -28 7 -35 15 -7 9 -15 13 -18 10 -3 -3 -13 2 -22 10 -21 19 -130
85 -140 85 -4 0 -26 14 -48 30 -23 17 -46 30 -51 30 -5 0 -11 7 -15 15 -3 8
-9 14 -13 13 -12 -3 -64 27 -94 54 -31 28 -59 47 -81 54 -10 4 -18 10 -18 14
0 5 -18 16 -40 26 -22 10 -40 24 -40 31 0 7 -7 13 -15 13 -7 0 -18 6 -22 13
-4 7 -35 30 -68 52 -33 22 -64 45 -70 51 -5 5 -32 28 -60 49 -27 22 -57 47
-65 56 -12 13 -178 160 -250 221 -56 49 -311 313 -384 399 -49 57 -101 115
-115 128 -14 13 -26 27 -26 31 0 3 -17 23 -38 43 -20 21 -37 40 -37 42 0 2
-43 61 -95 130 -52 69 -116 156 -142 193 -26 37 -50 69 -55 70 -4 2 -8 8 -8
14 0 6 -11 24 -26 40 -14 17 -36 52 -49 79 -14 26 -35 59 -48 73 -13 14 -32
45 -43 68 -10 24 -21 45 -24 48 -3 3 -27 41 -53 85 -25 44 -51 85 -57 92 -5 7
-10 18 -10 25 0 7 -7 22 -15 32 -8 11 -15 26 -15 34 0 8 -13 33 -28 56 -16 23
-32 55 -36 69 -3 15 -11 27 -16 27 -6 0 -10 5 -10 10 0 6 -18 48 -40 94 -52
112 -110 252 -110 268 0 7 -10 31 -21 53 -25 47 -95 237 -114 310 -7 28 -20
66 -28 85 -8 19 -20 60 -26 90 -7 30 -16 64 -21 75 -4 11 -13 47 -20 80 -7 33
-15 65 -18 70 -4 6 -8 26 -9 45 -1 19 -6 44 -12 55 -5 11 -15 49 -22 85 -6 36
-14 69 -17 74 -3 6 -7 34 -8 64 -2 30 -8 59 -13 66 -5 6 -14 53 -20 105 -7 52
-14 97 -16 101 -2 3 -7 42 -10 86 -3 43 -7 90 -10 104 -3 14 -13 99 -22 190
-14 128 -17 255 -17 565 0 359 2 420 23 595 13 107 23 204 23 215 -1 11 5 61
13 110 9 50 17 109 19 131 2 23 9 51 16 63 6 13 9 29 6 36 -3 8 -1 17 5 20 5
4 9 21 9 38 -1 18 13 84 30 147 17 63 29 123 26 132 -2 10 -1 20 3 23 4 2 13
30 20 62 36 158 156 530 220 680 17 40 31 79 31 88 0 9 6 29 14 43 21 39 94
196 128 277 17 39 34 72 38 75 3 3 35 61 69 130 34 69 87 163 116 210 30 47
67 106 82 132 15 27 31 48 36 48 4 0 7 5 7 12 0 10 73 123 89 138 4 3 12 17
20 32 7 14 27 41 44 60 17 18 52 65 78 103 26 39 59 83 73 98 14 15 26 30 26
33 0 5 13 20 100 114 39 41 70 79 70 84 0 4 22 31 49 60 27 28 84 89 127 136
82 88 325 330 332 330 2 0 9 6 17 13 62 57 184 165 310 274 54 47 104 83 114
83 6 0 11 4 11 9 0 10 74 66 222 165 53 36 98 69 100 73 1 5 24 19 51 33 26
13 47 28 47 32 0 5 7 8 15 8 9 0 26 10 39 23 26 25 61 47 75 47 9 0 90 50 141
87 14 10 30 18 35 19 19 2 50 18 69 36 11 10 26 18 33 18 7 0 13 5 13 11 0 5
4 8 10 4 8 -5 48 12 60 26 10 12 183 89 188 84 3 -3 16 5 29 17 12 12 26 18
30 15 3 -4 13 -1 21 5 16 13 72 36 112 45 14 4 40 15 58 25 18 10 39 18 47 18
14 0 85 29 127 51 10 5 29 9 43 9 14 0 25 4 25 9 0 5 11 8 25 7 14 -2 30 3 36
10 6 8 20 14 31 14 10 0 30 7 43 16 14 9 34 14 45 11 11 -3 20 -1 20 5 0 6 6
8 14 5 8 -3 31 3 52 14 21 10 46 19 55 19 9 0 35 7 57 14 28 10 44 12 48 4 4
-7 9 -6 14 2 4 7 20 13 36 14 16 1 34 5 41 9 6 4 18 4 27 1 9 -3 16 -2 16 2 0
5 13 9 29 10 16 1 37 5 47 9 27 11 65 12 71 2 3 -5 9 -4 13 3 4 6 27 14 51 17
24 2 51 7 59 10 8 3 26 7 40 9 71 8 116 17 125 22 5 3 24 5 41 3 18 -1 35 2
39 8 9 15 21 14 39 -5 9 -8 16 -11 16 -7 0 12 280 37 308 29 11 -4 23 -2 27 3
6 11 577 16 587 5z m5398 -6899 c0 -8 -4 -15 -10 -15 -5 0 -10 7 -10 15 0 8 5
15 10 15 6 0 10 -7 10 -15z"/>
<path d="M12381 26873 c-7 -8 -19 -12 -27 -9 -8 3 -27 0 -42 -6 -15 -6 -35
-12 -45 -13 -11 -1 -22 -6 -25 -11 -4 -5 -20 -9 -37 -9 -16 0 -35 -4 -42 -8
-7 -5 -27 -13 -45 -17 -84 -22 -346 -128 -387 -157 -14 -10 -50 -29 -78 -42
-29 -14 -53 -28 -53 -33 0 -4 -5 -8 -10 -8 -6 0 -36 -17 -67 -37 -31 -21 -67
-44 -80 -51 -12 -7 -23 -18 -23 -23 0 -6 -4 -8 -9 -4 -6 3 -25 -8 -44 -25 -19
-16 -38 -30 -41 -30 -7 0 -23 -12 -54 -41 -9 -8 -64 -56 -122 -105 -58 -49
-113 -97 -122 -106 -10 -10 -22 -18 -28 -18 -5 0 -10 -6 -10 -14 0 -8 -12 -25
-27 -38 -16 -13 -59 -60 -98 -103 -38 -44 -76 -87 -85 -96 -8 -8 -31 -35 -50
-59 -19 -25 -48 -58 -64 -75 -15 -16 -37 -47 -47 -67 -10 -20 -37 -56 -59 -80
-22 -24 -40 -46 -40 -50 0 -8 -72 -131 -81 -138 -4 -3 -22 -34 -40 -70 -19
-36 -36 -67 -39 -70 -15 -15 -110 -212 -110 -229 0 -10 -7 -24 -15 -31 -8 -7
-15 -19 -15 -28 0 -9 -9 -34 -19 -56 -11 -23 -32 -75 -46 -116 -15 -41 -33
-89 -40 -105 -8 -17 -19 -51 -24 -75 -6 -25 -19 -74 -31 -110 -38 -119 -80
-374 -101 -615 -13 -159 -13 -503 1 -645 6 -58 12 -130 15 -160 11 -165 79
-500 125 -615 17 -42 80 -222 80 -228 0 -3 14 -37 31 -74 17 -37 40 -88 51
-113 11 -25 28 -61 39 -80 11 -19 31 -60 45 -90 14 -30 29 -57 33 -60 5 -3 20
-27 34 -55 14 -27 37 -63 51 -80 14 -16 26 -35 26 -41 0 -6 29 -50 65 -98 36
-48 65 -91 65 -96 0 -4 3 -10 8 -12 7 -3 51 -54 92 -108 121 -159 457 -490
497 -490 7 0 13 -4 13 -10 0 -5 24 -27 53 -48 28 -22 63 -49 77 -61 13 -12 46
-34 72 -48 26 -14 48 -30 48 -35 0 -4 5 -8 10 -8 6 0 20 -9 32 -20 12 -11 30
-20 40 -20 10 0 18 -4 18 -8 0 -5 24 -22 53 -37 28 -16 54 -31 57 -34 10 -11
72 -41 85 -41 8 0 34 -11 57 -23 24 -13 79 -38 123 -54 93 -36 118 -46 125
-48 3 -1 12 -4 20 -7 44 -18 83 -27 90 -23 4 3 10 -2 14 -10 7 -18 36 -20 36
-2 0 8 3 9 8 1 4 -6 43 -22 87 -34 44 -13 86 -30 93 -38 10 -13 12 1 12 77 0
79 -2 92 -15 87 -8 -3 -15 -1 -15 5 0 5 -11 7 -25 3 -16 -4 -25 -2 -25 5 0 7
-9 9 -24 5 -13 -3 -27 -1 -31 5 -3 6 -10 9 -15 6 -5 -3 -20 0 -32 7 -13 7 -27
11 -31 10 -4 -1 -18 3 -30 10 -12 7 -26 13 -32 14 -22 2 -71 16 -87 25 -10 5
-22 9 -28 9 -5 0 -38 13 -72 29 -35 15 -80 34 -100 42 -21 7 -38 17 -38 21 0
4 -5 8 -12 8 -20 0 -118 50 -118 60 0 6 -6 10 -14 10 -7 0 -25 9 -39 20 -14
11 -30 20 -37 20 -6 0 -30 15 -53 33 -23 19 -57 42 -74 53 -18 10 -33 22 -33
26 0 4 -7 8 -15 8 -8 0 -42 24 -74 54 -33 30 -78 66 -100 81 -23 14 -41 30
-41 35 0 6 -5 10 -10 10 -6 0 -50 41 -99 90 -49 50 -94 90 -100 90 -6 0 -11 3
-11 8 0 4 -19 27 -43 52 -76 81 -147 164 -147 171 0 4 -22 31 -50 60 -27 30
-50 58 -50 63 0 6 -8 19 -19 30 -25 28 -101 139 -136 201 -16 28 -35 56 -42
63 -7 7 -13 18 -13 24 0 5 -13 30 -30 54 -16 25 -33 56 -36 69 -3 14 -10 25
-14 25 -8 0 -61 120 -96 215 -10 28 -25 64 -34 80 -9 17 -20 48 -24 70 -4 22
-11 45 -16 50 -7 10 -21 51 -75 235 -24 81 -50 207 -61 295 -3 22 -12 92 -21
155 -24 172 -23 693 1 900 9 85 24 181 32 212 8 32 14 68 14 81 0 13 6 43 14
68 8 24 21 71 31 104 38 139 90 294 117 349 15 33 28 64 28 68 0 18 72 168
130 273 21 39 42 77 46 85 4 8 22 38 40 65 18 28 45 74 62 104 16 29 39 65 50
80 12 14 46 58 75 98 74 100 114 147 175 208 28 29 52 57 52 62 1 10 210 218
220 218 5 0 28 21 52 46 24 25 93 83 153 127 61 45 122 91 137 102 14 11 31
20 36 20 5 0 15 7 23 16 7 9 39 29 71 45 32 16 58 34 58 39 0 6 9 10 21 10 11
0 41 14 65 31 25 17 48 28 51 25 3 -3 18 3 33 14 16 11 33 20 39 20 6 0 19 5
29 10 9 6 49 21 87 34 101 35 137 47 165 59 14 6 35 9 48 8 13 -1 30 3 38 9 7
7 14 9 14 5 0 -4 6 -2 14 4 7 6 21 9 30 5 9 -3 16 -1 16 5 0 7 8 11 18 9 14
-3 17 6 20 60 3 73 -5 98 -27 75z m-2291 -4013 c0 -5 -5 -10 -11 -10 -5 0 -7
5 -4 10 3 6 8 10 11 10 2 0 4 -4 4 -10z"/>
<path d="M16445 26671 c-6 -5 -38 -11 -72 -13 -35 -1 -63 -6 -63 -10 0 -4 -8
-6 -17 -6 -52 3 -220 -107 -277 -180 -32 -41 -35 -45 -57 -72 -19 -22 -74
-132 -93 -185 -53 -148 -40 -418 28 -556 51 -103 66 -130 88 -153 10 -11 18
-23 18 -28 0 -13 62 -78 75 -78 7 0 15 -7 19 -15 3 -8 12 -15 21 -15 8 0 15
-4 15 -9 0 -5 15 -14 33 -21 17 -8 39 -19 48 -27 33 -28 132 -47 247 -47 64
-1 116 3 120 9 4 6 22 11 40 13 19 2 68 25 109 50 41 26 83 52 93 57 43 25
173 208 186 262 4 15 11 33 16 40 19 24 48 188 48 269 0 91 -20 207 -45 269
-41 98 -90 191 -107 203 -10 7 -18 17 -18 22 0 12 -77 90 -89 90 -6 0 -11 5
-11 10 0 6 -7 10 -15 10 -8 0 -15 4 -15 9 0 5 -10 13 -22 17 -13 3 -35 15 -50
26 -16 11 -28 16 -28 12 0 -3 -6 -1 -13 5 -8 6 -16 8 -20 5 -3 -3 -16 0 -29 7
-12 7 -27 14 -33 15 -5 0 -14 2 -20 3 -5 2 -25 2 -42 1 -18 -1 -33 3 -33 9 0
13 -23 14 -35 2z"/>
<path d="M16373 21487 c-2 -4 -13 -5 -23 -2 -10 3 -21 1 -25 -5 -3 -6 -11 -8
-16 -4 -5 3 -16 1 -23 -6 -8 -6 -24 -13 -37 -15 -13 -3 -36 -14 -51 -25 -15
-11 -31 -20 -35 -20 -11 -1 -133 -114 -133 -124 0 -4 -5 -12 -10 -19 -41 -49
-74 -98 -90 -132 -78 -176 -96 -343 -54 -520 25 -106 39 -137 110 -245 51 -78
75 -105 134 -150 25 -19 47 -38 48 -42 2 -5 9 -8 16 -8 6 0 28 -11 48 -25 20
-14 50 -25 67 -25 16 0 32 -4 35 -9 3 -5 64 -9 136 -9 72 0 133 4 136 9 3 5
17 9 31 9 30 0 143 49 143 61 0 5 6 9 13 9 6 0 48 37 93 83 58 59 89 100 109
145 15 34 31 62 34 62 23 0 61 199 61 315 0 93 -21 225 -42 275 -28 65 -72
155 -83 169 -27 37 -153 161 -163 161 -7 0 -12 4 -12 8 0 14 -137 73 -153 66
-8 -3 -18 0 -22 5 -3 6 -11 9 -16 6 -5 -4 -9 -3 -9 2 0 10 -210 11 -217 0z"/>
<path d="M24046 21161 c-57 -63 -34 -321 28 -321 6 0 24 14 38 30 26 30 30 31
95 28 l68 -3 3 -73 c2 -41 -2 -79 -7 -86 -7 -9 -29 -10 -77 -5 -54 5 -71 12
-91 33 -28 31 -37 32 -62 7 -44 -44 -36 -266 11 -304 22 -18 23 -18 38 1 8 11
20 27 25 37 9 16 30 17 197 17 193 -1 222 -6 233 -42 9 -30 49 -26 71 8 15 22
19 47 19 134 0 92 -3 110 -20 134 -28 37 -51 38 -77 4 -20 -25 -31 -29 -80
-31 -32 -1 -60 0 -64 3 -11 11 -14 116 -4 142 9 24 15 26 64 26 48 0 57 -3 78
-29 53 -66 93 -42 104 65 11 105 -24 223 -68 232 -9 2 -25 -12 -37 -33 l-21
-36 -169 2 c-204 2 -215 4 -232 37 -24 46 -38 51 -63 23z m554 -61 c0 -5 -5
-10 -11 -10 -5 0 -7 5 -4 10 3 6 8 10 11 10 2 0 4 -4 4 -10z m-90 -56 c0 -8
-4 -12 -10 -9 -5 3 -10 10 -10 16 0 5 5 9 10 9 6 0 10 -7 10 -16z"/>
<path d="M21355 21141 c-3 -5 -1 -12 5 -16 5 -3 10 1 10 9 0 18 -6 21 -15 7z"/>
<path d="M5666 20621 c-4 -7 -5 -15 -2 -18 9 -9 19 4 14 18 -4 11 -6 11 -12 0z"/>
<path d="M24081 20417 c-38 -19 -61 -58 -67 -112 -5 -41 -1 -59 19 -97 l24
-48 -24 -32 c-30 -41 -27 -92 8 -142 36 -53 89 -68 89 -26 0 25 10 27 129 29
87 2 109 6 133 22 48 35 63 74 63 169 0 98 -28 177 -75 210 -37 27 -56 25 -77
-6 -16 -24 -16 -28 1 -58 9 -17 30 -40 46 -51 69 -46 45 -94 -47 -95 -36 0
-38 3 -47 97 -11 114 -95 181 -175 140z m109 -177 c35 -35 22 -68 -26 -65 -41
2 -54 12 -54 40 0 43 47 58 80 25z"/>
<path d="M23924 19903 c-27 -27 -55 -100 -61 -158 -8 -76 3 -122 34 -142 25
-17 26 -17 53 15 18 22 35 32 54 32 27 0 28 -1 19 -42 -20 -108 5 -178 88
-237 47 -35 141 -49 205 -32 125 34 179 153 119 265 -13 25 -21 47 -17 48 4 0
14 2 22 2 37 3 -13 208 -61 252 -26 23 -53 14 -64 -24 l-9 -32 -143 0 c-153 0
-144 -2 -191 54 -16 20 -26 20 -48 -1z m373 -256 c7 0 20 -8 28 -17 12 -13 13
-23 5 -44 -12 -33 -50 -48 -120 -48 -46 0 -58 4 -76 25 -22 26 -23 74 0 90 6
4 43 4 81 0 39 -3 76 -6 82 -6z"/>
<path d="M23906 19273 c-32 -48 -50 -130 -44 -201 4 -46 10 -59 33 -78 l29
-23 23 32 c26 35 53 49 73 37 10 -6 10 -18 0 -58 -23 -99 19 -185 115 -232 52
-25 69 -28 125 -25 72 4 113 21 152 62 54 57 63 132 23 206 -22 42 -20 67 4
52 15 -8 23 30 15 71 -10 52 -50 153 -70 176 -27 29 -53 23 -70 -17 l-14 -34
-122 0 c-158 0 -175 4 -193 40 -21 40 -49 37 -79 -8z m421 -252 c17 -22 16
-26 -11 -58 -21 -25 -32 -28 -87 -30 -35 -1 -72 3 -82 8 -26 14 -39 54 -27 84
9 25 10 25 102 18 67 -4 96 -11 105 -22z"/>
<path d="M24379 18698 c-9 -7 -23 -25 -32 -40 -10 -16 -22 -28 -28 -28 -6 0
-71 -30 -146 -66 -153 -75 -208 -87 -208 -44 0 18 6 26 21 28 12 2 30 12 40
23 46 51 -4 137 -74 126 -42 -7 -61 -23 -79 -64 -28 -69 -9 -158 46 -215 21
-21 43 -38 49 -38 7 0 12 -3 12 -8 0 -4 28 -18 63 -30 34 -13 76 -30 94 -38
17 -8 36 -14 42 -14 6 0 19 -4 29 -9 9 -6 46 -22 81 -37 48 -21 69 -37 88 -66
15 -25 30 -38 41 -36 39 8 55 107 28 173 -16 38 -32 43 -62 20 -23 -17 -50
-19 -93 -4 -43 15 -40 42 7 65 47 22 69 24 83 7 20 -23 48 -15 65 19 32 63 2
288 -39 288 -7 0 -20 -6 -28 -12z"/>
<path d="M24028 17878 c-9 -16 -13 -67 -13 -158 0 -114 3 -140 18 -164 10 -15
25 -26 34 -24 16 3 19 7 43 59 11 25 16 26 90 28 69 2 79 -1 84 -17 7 -22 -2
-53 -18 -64 -6 -4 -23 -8 -38 -8 -52 0 -50 -56 4 -80 43 -19 173 -15 205 5 41
28 27 65 -30 79 -25 6 -28 10 -25 44 l3 37 55 1 c75 1 93 -7 101 -44 12 -60
-5 -118 -49 -166 -23 -25 -42 -48 -42 -51 0 -37 67 -68 95 -45 8 7 15 10 15 6
0 -4 13 0 30 9 30 16 55 49 46 63 -11 18 -15 236 -6 335 10 111 2 160 -26 171
-13 5 -23 -3 -69 -57 -13 -15 -35 -17 -193 -15 -191 2 -228 8 -238 41 -13 42
-56 50 -76 15z"/>
<path d="M24081 17287 c-46 -23 -66 -63 -66 -131 0 -42 6 -71 18 -89 22 -34
21 -42 -4 -77 -28 -38 -20 -103 19 -148 31 -35 72 -52 72 -29 0 32 31 42 136
43 115 2 141 12 174 66 53 87 22 276 -56 337 -35 28 -50 26 -71 -5 -16 -24
-16 -28 2 -60 10 -19 33 -46 52 -60 57 -43 40 -80 -39 -88 -53 -4 -58 1 -58
65 0 54 -32 133 -66 163 -32 28 -75 33 -113 13z m115 -192 c8 -12 11 -30 8
-40 -6 -14 -15 -16 -47 -12 -57 8 -71 33 -38 66 24 24 56 18 77 -14z"/>
<path d="M24135 16749 c-48 -24 -93 -76 -111 -127 -40 -111 13 -272 95 -288
41 -9 55 19 36 72 -19 53 -18 74 5 111 27 44 63 65 111 65 50 -1 79 -24 79
-63 0 -30 -23 -49 -59 -49 -33 0 -56 -44 -45 -88 7 -28 17 -41 45 -55 33 -16
39 -16 72 -2 24 10 45 30 64 62 23 40 27 57 27 127 0 63 -5 90 -22 122 -27 52
-77 103 -119 120 -49 21 -131 18 -178 -7z"/>
<path d="M22585 16421 c-6 -6 -291 -12 -695 -16 -377 -4 -690 -8 -697 -10 -7
-2 -461 -6 -1010 -10 -549 -3 -1110 -7 -1248 -10 -352 -7 -833 -7 -844 -1 -5
4 -11 2 -13 -4 -3 -10 -801 -16 -817 -5 -5 3 -11 -1 -14 -7 -3 -10 -7 -10 -20
1 -11 8 -17 9 -17 2 0 -7 -112 -11 -382 -11 -211 0 -411 -3 -445 -5 -46 -3
-63 -1 -63 8 0 9 -2 9 -8 1 -9 -14 -1460 -35 -1479 -22 -6 5 -13 4 -15 -2 -2
-7 -351 -12 -1168 -16 -641 -4 -1170 -10 -1176 -15 -6 -5 -15 -5 -20 -1 -5 5
-225 6 -489 3 -315 -4 -483 -3 -487 4 -5 6 -8 5 -8 -2 0 -9 -105 -13 -447 -14
-247 -1 -468 -3 -493 -4 -25 -1 -389 -6 -810 -10 -421 -4 -782 -9 -803 -10
-20 -1 -40 2 -43 7 -4 6 -9 5 -14 -2 -6 -9 -302 -13 -1296 -17 -1405 -5 -2156
-12 -2163 -19 -9 -9 -51 -3 -51 7 0 8 -4 8 -13 1 -7 -6 -70 -10 -160 -9 -138
2 -147 1 -147 -17 0 -18 21 -18 758 -11 416 4 758 8 760 10 2 2 17 -1 33 -5
18 -5 29 -5 29 1 0 6 152 9 423 8 232 -1 729 1 1104 4 375 4 770 7 877 7 108
1 196 4 196 8 0 4 184 6 409 4 298 -2 416 0 432 8 17 9 23 9 29 0 5 -7 14 -11
21 -8 8 3 567 8 1243 12 676 3 1233 9 1239 13 11 7 513 13 1345 15 259 1 472
4 472 7 0 4 174 6 386 6 212 0 388 3 390 7 2 3 185 6 405 7 221 0 404 2 407 5
11 12 72 6 72 -6 0 -10 2 -10 8 -1 6 9 269 13 1111 15 606 1 1105 6 1108 10 2
5 9 6 14 2 13 -8 567 -6 722 2 96 6 117 4 117 -7 0 -10 2 -11 8 -2 6 9 95 12
349 14 188 0 346 -2 352 -5 5 -3 11 -2 13 4 3 10 731 16 747 5 5 -3 11 -1 13
4 3 8 1256 26 1510 22 68 -1 109 2 113 9 5 8 11 8 20 0 8 -7 20 -8 26 -4 7 4
79 6 161 5 l148 -2 0 25 c0 29 -2 30 -15 17z"/>
<path d="M24171 16274 c-57 -16 -107 -57 -134 -107 -28 -53 -30 -183 -4 -233
28 -55 67 -94 93 -94 31 0 42 39 20 72 -8 12 -18 41 -21 63 -6 34 -2 46 25 83
19 27 37 42 48 40 15 -3 18 -21 22 -131 5 -137 9 -147 59 -147 38 0 107 38
134 74 50 64 59 184 21 257 -15 31 -64 82 -99 104 -35 24 -117 33 -164 19z
m184 -186 c38 -17 44 -56 12 -84 -16 -14 -34 -20 -47 -17 -17 5 -20 13 -20 59
0 59 7 64 55 42z"/>
<path d="M23855 15596 c-8 -20 -15 -42 -15 -49 0 -20 30 -43 75 -57 22 -7 45
-16 50 -20 6 -4 44 -22 85 -40 41 -18 107 -47 145 -65 39 -18 115 -52 170 -76
55 -24 127 -58 159 -77 72 -40 97 -39 109 5 16 53 9 60 -118 113 -11 5 -46 20
-78 34 -32 14 -60 26 -62 26 -9 0 -288 131 -428 201 l-78 40 -14 -35z"/>
<path d="M13897 15104 c-3 -4 -55 -8 -114 -10 -155 -5 -251 -12 -263 -19 -6
-4 -17 -2 -25 5 -7 6 -16 7 -19 2 -5 -8 -112 -25 -171 -27 -11 -1 -25 -4 -31
-8 -6 -3 -34 -7 -62 -9 -29 -2 -52 -6 -52 -9 0 -12 -69 -15 -74 -4 -3 7 -7 6
-13 -1 -4 -6 -28 -15 -53 -19 -25 -4 -62 -14 -84 -21 -21 -8 -55 -14 -76 -14
-20 0 -39 -3 -43 -6 -3 -4 -25 -7 -48 -8 -24 -2 -45 -8 -47 -14 -2 -6 -9 -9
-17 -6 -7 3 -16 1 -19 -5 -4 -6 -13 -8 -21 -4 -8 3 -15 0 -15 -7 0 -6 -4 -9
-9 -5 -5 3 -13 1 -16 -5 -4 -6 -15 -8 -26 -5 -10 4 -19 2 -19 -4 0 -6 -6 -8
-14 -5 -8 3 -17 0 -21 -5 -3 -6 -11 -9 -16 -5 -5 3 -16 0 -24 -6 -8 -7 -15 -9
-15 -5 0 5 -8 1 -17 -7 -10 -8 -25 -15 -34 -15 -19 0 -209 -62 -224 -73 -5 -4
-26 -11 -45 -15 -19 -4 -44 -14 -55 -21 -11 -8 -30 -14 -42 -14 -13 0 -23 -5
-23 -11 0 -6 -8 -8 -19 -4 -10 3 -24 -1 -31 -10 -7 -8 -20 -15 -30 -15 -10 0
-23 -7 -30 -15 -7 -9 -15 -13 -18 -10 -3 3 -11 0 -19 -6 -7 -7 -25 -13 -40
-15 -15 -1 -30 -9 -35 -18 -4 -8 -34 -22 -66 -31 -31 -9 -59 -20 -62 -24 -3
-4 -30 -20 -60 -35 -30 -15 -62 -31 -70 -35 -8 -4 -37 -19 -65 -32 -27 -13
-53 -29 -58 -35 -4 -7 -21 -15 -38 -19 -17 -4 -39 -15 -50 -26 -10 -10 -42
-30 -71 -45 -29 -15 -95 -53 -146 -85 -51 -33 -96 -59 -100 -59 -4 0 -29 -21
-57 -45 -27 -25 -55 -45 -62 -45 -6 0 -25 -11 -41 -25 -17 -14 -34 -25 -40
-25 -5 0 -12 -7 -16 -15 -3 -8 -11 -15 -18 -15 -7 0 -19 -9 -26 -20 -7 -12
-17 -18 -22 -15 -6 4 -13 -1 -16 -9 -3 -9 -10 -16 -15 -16 -4 0 -25 -16 -46
-35 -21 -19 -43 -35 -49 -35 -7 0 -14 -7 -18 -15 -3 -8 -12 -15 -21 -15 -8 0
-15 -4 -15 -10 0 -5 -5 -10 -10 -10 -6 0 -30 -19 -53 -42 -24 -24 -62 -59 -85
-78 -23 -19 -56 -50 -74 -67 -17 -18 -34 -33 -38 -33 -4 0 -35 -27 -68 -60
-34 -33 -63 -60 -65 -60 -3 0 -71 -67 -212 -213 -28 -29 -84 -90 -125 -137
-41 -46 -98 -109 -125 -140 -28 -30 -73 -82 -100 -115 -27 -33 -56 -67 -65
-76 -9 -9 -31 -39 -49 -68 -18 -28 -37 -51 -42 -51 -5 0 -9 -4 -9 -9 0 -6 -11
-22 -25 -37 -14 -15 -39 -51 -56 -80 -16 -29 -33 -54 -37 -56 -10 -4 -62 -75
-62 -84 0 -4 -11 -22 -25 -40 -14 -18 -25 -37 -25 -43 0 -6 -4 -11 -8 -11 -5
0 -15 -12 -23 -27 -8 -15 -20 -34 -28 -43 -7 -8 -31 -46 -52 -85 -22 -38 -44
-77 -49 -85 -55 -86 -270 -501 -285 -550 -4 -14 -22 -56 -40 -95 -38 -83 -57
-126 -61 -140 -9 -30 -35 -102 -43 -115 -5 -9 -12 -31 -16 -50 -4 -19 -18 -58
-31 -87 -13 -28 -24 -58 -24 -65 0 -17 -55 -177 -64 -185 -3 -4 -6 -16 -6 -27
0 -12 -9 -50 -20 -86 -31 -98 -79 -317 -94 -425 -3 -16 -16 -88 -31 -159 -14
-71 -30 -177 -36 -234 -5 -58 -13 -132 -18 -166 -5 -34 -9 -106 -10 -160 -1
-55 -4 -103 -7 -108 -14 -22 -21 -629 -9 -773 3 -33 7 -115 10 -182 2 -68 9
-160 15 -205 5 -46 14 -126 20 -178 5 -52 20 -153 34 -225 14 -71 32 -173 41
-225 9 -52 21 -106 26 -118 5 -13 12 -40 15 -60 3 -21 14 -66 26 -102 22 -72
22 -69 33 -125 14 -71 170 -522 186 -539 5 -6 9 -17 9 -25 0 -9 7 -29 16 -46
21 -40 74 -168 74 -178 0 -4 46 -101 103 -214 124 -251 120 -243 129 -243 4 0
12 -18 18 -40 6 -21 21 -52 34 -67 13 -15 34 -48 47 -72 30 -55 33 -60 97
-153 28 -42 52 -80 52 -83 0 -7 90 -136 112 -159 10 -11 18 -25 18 -31 0 -6
10 -21 22 -33 25 -22 26 -24 78 -95 19 -27 57 -76 85 -110 49 -62 72 -88 200
-231 39 -43 71 -81 73 -86 5 -13 353 -360 361 -360 5 0 25 -18 45 -40 20 -22
39 -40 42 -40 7 0 61 -48 125 -113 26 -26 52 -47 57 -47 6 0 12 -7 16 -15 3
-8 11 -15 18 -15 7 0 22 -11 32 -25 10 -14 24 -25 30 -25 6 0 31 -18 56 -40
25 -22 51 -40 58 -40 7 0 15 -7 18 -15 4 -8 10 -15 14 -15 4 0 23 -14 41 -31
19 -18 50 -39 69 -47 19 -8 37 -18 40 -22 8 -11 140 -110 148 -110 4 0 45 -25
92 -55 46 -30 89 -55 96 -55 6 0 30 -13 52 -30 23 -16 46 -30 51 -30 5 0 22
-10 38 -22 42 -34 73 -49 83 -43 6 4 13 -1 16 -9 3 -9 10 -16 14 -16 4 0 40
-18 80 -40 40 -22 79 -40 86 -40 8 0 14 -4 14 -10 0 -5 11 -10 24 -10 13 0 35
-9 49 -20 14 -11 35 -20 46 -20 12 0 21 -4 21 -9 0 -10 38 -24 58 -22 6 1 12
-3 12 -9 0 -5 5 -10 12 -10 6 0 19 -7 28 -15 9 -8 34 -17 55 -21 22 -3 43 -11
47 -17 4 -6 10 -8 14 -4 4 4 14 1 23 -6 9 -7 41 -21 71 -31 30 -11 71 -27 91
-37 20 -10 58 -21 85 -24 26 -3 55 -12 64 -19 8 -7 21 -11 28 -9 6 3 12 0 12
-7 0 -6 4 -9 9 -5 5 3 12 1 16 -5 4 -6 10 -8 15 -5 5 3 11 1 15 -5 3 -5 21
-10 40 -10 19 0 36 -4 40 -10 3 -5 12 -7 19 -4 8 3 17 1 21 -5 3 -6 17 -11 31
-11 13 0 24 -5 24 -10 0 -6 3 -9 8 -9 4 1 9 0 12 -1 3 -1 25 -4 50 -6 25 -2
52 -4 60 -5 8 -1 20 -6 27 -11 7 -5 17 -7 22 -4 5 4 12 2 15 -3 5 -8 47 -18
106 -26 8 -1 28 -7 43 -14 16 -6 32 -9 37 -6 5 3 12 1 15 -5 4 -6 15 -8 26 -5
11 4 19 2 19 -5 0 -6 11 -8 27 -6 15 3 32 1 39 -5 7 -6 18 -8 24 -4 5 3 16 3
23 -2 6 -4 21 -9 32 -10 11 -1 34 -4 50 -7 33 -6 154 -10 170 -5 6 1 17 -1 25
-4 32 -13 669 -47 705 -37 6 1 57 4 115 6 58 1 113 6 122 9 10 4 40 5 68 3 27
-1 50 0 50 3 0 7 185 21 271 21 27 0 52 4 55 10 3 5 15 6 25 3 11 -4 26 -1 34
5 8 6 23 9 34 5 10 -3 22 -1 26 5 4 6 15 8 25 5 10 -3 21 -1 25 5 4 6 15 8 25
5 10 -3 21 -1 25 5 3 5 17 7 30 4 12 -3 26 -1 29 5 4 6 37 8 86 5 54 -3 80 -1
80 7 0 6 8 8 19 4 11 -3 22 -1 25 4 4 6 13 8 20 5 8 -3 17 -1 20 5 4 6 13 8
21 4 8 -3 15 0 15 7 0 7 7 10 16 6 9 -3 21 -3 27 1 7 4 15 8 20 9 4 1 8 2 10
4 1 1 20 3 42 5 22 2 76 14 120 28 44 13 136 41 205 62 69 21 133 42 143 47
11 5 21 7 25 4 3 -3 19 3 37 14 18 11 35 17 38 13 4 -3 7 -1 7 5 0 7 11 12 24
12 14 0 28 5 31 11 4 6 13 8 20 5 8 -3 15 -2 17 2 5 11 77 42 96 42 10 0 49
16 87 35 38 19 72 32 76 29 4 -2 11 1 14 6 4 6 18 16 32 21 16 6 23 14 19 24
-3 8 -1 15 3 15 5 0 11 -5 13 -12 3 -8 20 -4 54 13 27 13 51 27 52 32 2 4 9 7
16 7 18 0 66 24 66 33 0 4 8 7 18 8 9 0 31 9 47 19 17 11 45 26 63 34 18 9 45
25 59 36 14 11 30 17 35 14 5 -3 16 3 24 15 8 12 22 21 30 21 8 0 17 7 20 15
4 9 11 14 18 13 14 -3 76 30 76 40 0 5 15 16 33 25 64 33 160 97 222 149 18
16 39 28 48 28 8 0 29 13 47 30 43 41 106 90 115 90 6 0 29 18 172 139 40 34
76 61 81 61 5 0 15 11 22 25 7 13 19 25 26 27 7 2 49 37 93 78 117 109 431
419 431 425 0 3 33 43 73 88 39 46 90 104 112 131 22 26 55 64 73 84 48 53
172 217 172 228 0 5 14 23 30 41 17 18 30 37 30 42 0 6 4 11 8 11 5 0 15 12
23 28 8 15 16 29 19 32 16 16 62 85 101 150 24 41 49 81 56 88 7 7 29 43 50
80 20 37 39 69 43 72 3 3 14 25 25 50 11 24 29 56 41 70 11 14 44 77 73 140
29 63 59 122 66 130 12 13 85 191 85 206 0 3 8 18 18 32 10 15 35 74 56 132
20 58 49 131 62 163 14 31 27 65 29 75 2 9 11 37 20 62 9 25 21 63 26 85 5 22
27 94 48 160 36 115 57 196 80 315 6 30 26 125 46 211 19 86 35 167 35 180 0
13 11 96 25 184 79 499 78 1399 -2 1855 -8 47 -19 121 -24 165 -5 44 -16 107
-25 140 -18 71 -34 148 -39 190 -12 90 -98 417 -150 565 -14 41 -30 89 -35
105 -19 65 -121 333 -160 420 -15 33 -33 76 -40 95 -7 19 -19 42 -27 51 -7 8
-13 20 -13 25 0 12 -137 283 -153 304 -14 18 -28 43 -75 130 -20 36 -46 78
-59 93 -12 16 -23 32 -23 37 0 12 -62 104 -72 108 -5 2 -21 27 -36 54 -15 28
-32 58 -37 67 -35 56 -53 79 -78 106 -15 17 -42 54 -58 83 -17 28 -34 52 -38
52 -4 0 -16 16 -27 35 -10 19 -24 35 -31 35 -6 0 -14 9 -18 19 -3 11 -12 22
-20 25 -8 3 -15 11 -15 17 0 6 -10 21 -22 33 -13 12 -52 57 -88 100 -36 43
-76 90 -89 105 -12 14 -46 52 -75 85 -75 85 -313 326 -323 326 -4 0 -33 25
-63 56 -30 31 -95 90 -145 131 -49 42 -102 86 -117 99 -15 13 -30 24 -32 24
-3 0 -22 16 -43 35 -21 19 -42 35 -47 35 -5 0 -18 10 -30 23 -12 12 -34 29
-50 37 -16 8 -42 27 -59 43 -16 15 -33 27 -38 27 -5 0 -9 4 -9 9 0 5 -16 16
-35 25 -19 9 -35 20 -35 24 0 4 -24 20 -53 36 -28 16 -58 38 -65 48 -7 10 -20
18 -28 18 -8 0 -25 9 -37 20 -12 12 -32 23 -44 26 -13 4 -23 10 -23 15 0 5 -7
9 -15 9 -7 0 -18 6 -22 13 -4 6 -26 22 -48 33 -104 55 -130 70 -142 80 -12 11
-63 37 -125 62 -16 6 -28 16 -28 22 0 5 -7 10 -15 10 -9 0 -44 14 -78 32 -34
17 -66 32 -72 33 -19 2 -129 51 -208 92 -26 13 -59 27 -74 29 -15 3 -31 8 -37
12 -6 3 -19 8 -29 9 -10 2 -28 9 -40 17 -12 8 -39 18 -59 21 -21 4 -38 11 -38
17 0 5 -4 6 -10 3 -5 -3 -35 7 -67 22 -32 15 -65 27 -73 28 -13 1 -105 27
-150 43 -8 3 -18 4 -22 4 -5 -1 -50 11 -100 27 -105 33 -185 51 -228 51 -17 0
-30 5 -30 11 0 5 -4 7 -10 4 -5 -3 -15 -3 -21 1 -7 4 -28 8 -47 10 -18 2 -40
8 -46 14 -7 5 -16 7 -19 3 -4 -3 -14 0 -23 8 -12 10 -18 11 -21 3 -4 -11 -28
-10 -63 3 -8 4 -21 5 -29 4 -7 -1 -20 1 -30 5 -22 9 -35 12 -111 19 -35 3 -69
10 -75 15 -6 5 -21 6 -34 3 -14 -4 -26 -1 -31 7 -7 11 -12 11 -23 2 -7 -7 -17
-9 -21 -5 -4 4 -27 6 -51 4 -25 -1 -49 1 -56 4 -6 4 -71 9 -145 11 -74 2 -138
5 -142 8 -11 7 -488 7 -495 0z m933 -64 c0 -5 -4 -10 -10 -10 -5 0 -10 5 -10
10 0 6 5 10 10 10 6 0 10 -4 10 -10z m-110 -90 c47 -6 143 -20 213 -31 71 -12
142 -19 158 -17 16 3 29 0 29 -5 0 -5 9 -7 21 -4 12 3 22 0 25 -8 3 -7 13 -11
23 -8 10 2 44 -2 75 -11 32 -8 64 -12 72 -9 8 3 14 0 14 -7 0 -7 8 -9 19 -5
11 3 22 1 26 -5 3 -6 10 -8 15 -5 11 7 103 -15 111 -27 3 -5 17 -10 30 -12 14
-1 30 -5 36 -9 6 -4 18 -4 27 -1 9 3 16 1 16 -6 0 -7 8 -9 19 -5 11 3 22 1 26
-5 3 -6 10 -8 15 -5 5 3 11 1 15 -5 4 -6 11 -8 16 -5 5 3 23 0 41 -8 64 -29
101 -38 108 -27 5 7 11 6 19 -4 6 -8 23 -17 38 -20 14 -4 45 -16 69 -27 24
-12 47 -18 53 -15 5 3 15 0 23 -7 12 -12 120 -51 143 -52 6 0 17 -5 25 -10 8
-5 18 -10 22 -10 4 0 16 -8 27 -17 11 -9 21 -14 24 -12 5 5 68 -20 80 -32 4
-4 17 -9 29 -11 12 -2 45 -17 74 -34 30 -17 58 -28 64 -24 5 3 10 2 10 -4 0
-9 25 -23 80 -45 8 -3 22 -10 30 -15 8 -5 40 -21 70 -36 30 -14 88 -46 128
-70 39 -24 72 -42 72 -39 0 3 23 -10 50 -30 28 -20 55 -36 60 -36 6 0 10 -4
10 -10 0 -5 17 -17 38 -27 20 -9 43 -23 50 -30 7 -7 19 -13 25 -13 7 0 17 -8
23 -17 7 -10 33 -29 60 -43 26 -14 58 -35 70 -47 12 -13 26 -23 32 -23 6 0 17
-9 25 -20 8 -11 16 -17 20 -14 3 3 10 -4 17 -15 6 -12 17 -21 24 -21 7 0 23
-11 36 -25 13 -14 30 -25 37 -25 8 0 16 -7 19 -15 4 -8 12 -15 20 -15 7 0 17
-6 21 -13 4 -8 22 -22 38 -33 17 -10 45 -34 63 -51 18 -18 34 -33 36 -33 5 0
62 -49 110 -95 24 -22 68 -63 99 -92 31 -28 57 -56 57 -62 0 -6 6 -11 14 -11
14 0 252 -241 314 -319 20 -25 52 -61 70 -80 19 -19 47 -52 63 -74 16 -22 38
-46 48 -54 11 -7 72 -83 136 -168 64 -86 130 -170 146 -187 16 -18 29 -37 29
-43 0 -6 36 -65 80 -130 44 -66 80 -124 80 -130 0 -5 13 -23 28 -40 15 -16 40
-55 55 -85 15 -30 43 -80 62 -110 67 -108 256 -500 290 -605 7 -22 28 -78 45
-125 43 -116 94 -263 114 -330 9 -30 27 -93 41 -139 30 -99 35 -120 86 -366
91 -439 125 -727 142 -1210 7 -205 -14 -679 -40 -885 -13 -113 -29 -239 -33
-280 -4 -41 -16 -109 -25 -150 -18 -85 -52 -253 -64 -320 -17 -93 -58 -249
-80 -305 -16 -39 -41 -132 -41 -152 0 -11 -6 -26 -13 -32 -8 -6 -14 -25 -15
-42 0 -17 -5 -36 -10 -42 -5 -7 -17 -37 -27 -67 -23 -71 -125 -323 -134 -330
-3 -3 -15 -30 -25 -60 -19 -58 -183 -393 -214 -439 -10 -14 -27 -44 -37 -66
-11 -22 -23 -41 -27 -43 -5 -2 -8 -10 -8 -17 0 -8 -6 -20 -13 -27 -20 -21 -67
-97 -67 -108 0 -5 -4 -10 -10 -10 -5 0 -10 -5 -10 -10 0 -6 -4 -16 -10 -23
-20 -24 -80 -119 -80 -126 0 -5 -9 -16 -20 -26 -11 -10 -20 -24 -20 -32 0 -7
-4 -13 -10 -13 -5 0 -10 -5 -10 -11 0 -10 -172 -244 -194 -264 -6 -5 -24 -29
-39 -52 -16 -22 -48 -61 -73 -86 -24 -25 -44 -50 -44 -56 0 -5 -16 -23 -35
-38 -19 -15 -35 -31 -35 -36 0 -9 -16 -27 -169 -191 -61 -66 -111 -123 -111
-128 0 -4 -6 -8 -13 -8 -8 0 -43 -30 -78 -67 -35 -37 -84 -84 -109 -104 -25
-19 -59 -50 -75 -67 -16 -18 -34 -32 -40 -32 -5 0 -32 -25 -59 -55 -27 -30
-55 -55 -60 -55 -6 0 -36 -23 -66 -50 -30 -28 -58 -50 -62 -50 -4 0 -19 -11
-34 -25 -15 -14 -31 -25 -35 -25 -4 0 -19 -10 -32 -22 -41 -40 -87 -78 -87
-73 0 9 -116 -72 -144 -100 -14 -14 -32 -25 -41 -25 -9 0 -35 -15 -58 -34 -23
-19 -45 -34 -48 -33 -3 1 -23 -13 -44 -30 -21 -18 -45 -33 -54 -33 -9 0 -37
-15 -64 -34 -26 -18 -62 -40 -80 -47 -17 -7 -34 -16 -37 -19 -3 -3 -36 -22
-75 -40 -38 -19 -71 -38 -73 -42 -2 -5 -10 -8 -18 -8 -8 0 -14 -4 -14 -10 0
-5 -6 -10 -12 -10 -7 -1 -31 -9 -53 -20 -22 -11 -46 -19 -52 -20 -7 0 -13 -4
-13 -10 0 -5 -7 -7 -15 -4 -10 4 -15 0 -15 -15 0 -12 5 -21 10 -21 6 0 10 -5
10 -11 0 -20 -24 -3 -30 21 l-6 24 -22 -22 c-13 -13 -28 -20 -33 -16 -6 4 -14
1 -18 -5 -4 -6 -18 -14 -32 -16 -13 -3 -36 -14 -51 -25 -15 -11 -37 -20 -48
-20 -12 0 -40 -9 -62 -20 -23 -11 -47 -20 -54 -20 -6 0 -17 -6 -23 -14 -7 -8
-20 -12 -30 -9 -10 2 -36 -5 -57 -16 -21 -12 -42 -21 -46 -21 -4 0 -19 -5 -35
-12 -15 -6 -36 -10 -46 -9 -10 1 -25 -3 -33 -9 -8 -7 -14 -9 -14 -5 0 4 -7 2
-15 -5 -8 -7 -15 -9 -15 -5 0 4 -6 2 -13 -4 -8 -6 -17 -8 -20 -4 -4 3 -7 1 -7
-6 0 -8 -7 -11 -15 -7 -8 3 -15 1 -15 -5 0 -6 -7 -9 -15 -5 -8 3 -15 1 -15 -5
0 -6 -8 -9 -17 -7 -10 1 -22 0 -28 -4 -19 -11 -174 -48 -204 -48 -16 0 -32 -4
-35 -9 -3 -5 -15 -7 -25 -4 -10 3 -22 0 -25 -5 -3 -6 -15 -8 -26 -5 -12 3 -20
0 -20 -6 0 -7 -5 -9 -11 -5 -6 3 -15 1 -19 -7 -7 -10 -11 -10 -24 0 -13 11
-16 11 -16 -1 0 -11 -7 -14 -24 -11 -13 3 -27 0 -30 -6 -4 -5 -13 -8 -21 -4
-8 3 -15 0 -15 -7 0 -9 -3 -10 -13 -1 -8 6 -17 8 -20 5 -3 -4 -30 -8 -58 -10
-29 -3 -56 -8 -59 -12 -3 -4 -27 -8 -54 -9 -27 -1 -54 -7 -59 -12 -6 -6 -23
-7 -38 -4 -16 3 -35 1 -41 -4 -7 -5 -66 -9 -130 -9 -65 1 -118 -2 -118 -5 0
-9 -222 -20 -427 -20 -163 -1 -183 -3 -184 -17 -1 -15 -2 -15 -6 1 -4 14 -17
17 -84 17 -43 0 -79 3 -79 8 0 4 -27 5 -60 4 -34 -2 -68 -1 -78 3 -9 3 -67 7
-129 8 -62 1 -113 6 -113 11 0 5 -13 6 -30 3 -16 -4 -32 -2 -36 4 -3 6 -19 8
-35 5 -15 -3 -31 -1 -35 5 -3 6 -13 8 -21 5 -9 -4 -22 -1 -29 5 -8 6 -20 9
-29 6 -8 -4 -17 -1 -21 4 -3 6 -16 8 -29 5 -12 -3 -25 -2 -29 1 -4 4 -22 8
-39 8 -18 1 -38 4 -44 8 -6 4 -18 4 -27 1 -9 -4 -16 -1 -16 6 0 7 -8 10 -20 7
-11 -3 -23 -1 -26 4 -3 6 -14 7 -25 4 -11 -4 -19 -2 -19 5 0 7 -7 9 -16 6 -8
-3 -22 1 -30 9 -11 10 -32 14 -70 12 -30 -1 -54 1 -54 4 0 4 -24 13 -52 19
-29 7 -60 18 -68 24 -17 13 -39 14 -57 3 -7 -5 -13 -4 -13 2 0 10 -31 23 -60
26 -8 1 -29 9 -47 18 -18 9 -45 17 -61 17 -15 0 -37 6 -47 14 -11 8 -25 12
-32 9 -7 -3 -13 0 -13 7 0 6 -4 9 -9 5 -6 -3 -26 4 -46 15 -19 11 -39 19 -43
19 -14 -2 -52 14 -52 22 0 5 -6 6 -13 3 -8 -3 -19 2 -26 10 -7 8 -19 12 -27 9
-8 -3 -14 -1 -14 4 0 5 -9 9 -20 10 -11 1 -46 14 -78 30 -31 15 -61 28 -67 28
-5 0 -61 26 -122 57 -62 31 -113 54 -113 51 0 -3 -9 2 -19 11 -11 10 -52 34
-93 55 -144 74 -183 96 -206 118 -14 13 -29 20 -34 17 -5 -3 -19 3 -31 13 -22
20 -64 49 -98 69 -10 6 -28 19 -40 30 -12 10 -24 18 -28 18 -11 -2 -36 10 -55
28 -11 10 -24 18 -28 18 -5 0 -21 13 -36 30 -15 16 -37 31 -49 33 -11 1 -37
16 -56 32 -20 17 -62 50 -93 75 -32 25 -65 53 -76 63 -10 9 -21 17 -24 17 -6
0 -54 39 -111 89 -12 10 -24 17 -26 15 -2 -3 -22 16 -43 41 -21 24 -44 45 -51
45 -7 0 -29 20 -50 45 -20 25 -42 45 -47 45 -5 0 -44 35 -86 78 -42 42 -99 98
-126 123 -69 65 -246 256 -264 285 -8 13 -20 24 -26 24 -12 0 -74 73 -74 87 0
5 -16 25 -36 44 -19 18 -49 55 -66 82 -17 26 -35 47 -38 47 -4 0 -13 14 -20
30 -7 17 -18 30 -24 30 -11 1 -76 89 -76 104 0 4 -6 14 -12 22 -27 31 -34 40
-59 74 -14 19 -50 73 -79 120 -28 47 -57 90 -64 95 -6 6 -24 36 -41 68 -16 31
-33 57 -37 57 -4 0 -20 26 -35 58 -15 31 -56 106 -90 166 -35 60 -63 111 -63
113 0 3 -25 56 -55 118 -30 62 -62 135 -71 161 -9 26 -31 79 -50 119 -19 39
-34 77 -34 83 0 6 -6 23 -14 39 -23 44 -103 271 -125 354 -45 166 -68 246 -80
267 -7 12 -9 27 -6 32 3 6 2 10 -4 10 -5 0 -10 8 -9 18 0 9 -5 31 -10 49 -6
17 -8 34 -5 37 3 3 2 13 -2 23 -10 21 -9 19 -30 113 -9 41 -20 107 -25 145 -5
39 -15 102 -23 140 -50 239 -86 722 -81 1095 3 229 11 361 44 697 21 218 121
757 151 815 5 10 12 35 15 55 3 21 9 42 12 48 3 5 7 22 9 37 2 16 10 42 18 58
8 16 15 38 15 50 0 11 4 28 9 38 5 9 20 53 34 97 14 44 39 116 55 160 50 136
65 179 60 181 -2 1 4 10 13 20 9 11 30 55 47 99 17 44 52 123 77 175 26 52 58
118 70 145 12 28 48 93 79 145 31 52 59 105 62 118 4 12 10 22 15 22 5 0 9 7
9 15 0 9 7 18 15 21 8 4 15 12 15 20 0 8 5 14 10 14 6 0 10 9 10 19 0 11 3 21
8 23 9 3 85 119 127 193 16 28 36 57 45 65 9 8 49 64 90 123 40 60 79 111 87
114 7 3 13 11 13 19 0 8 4 14 8 14 4 0 15 13 25 29 10 16 33 46 52 65 19 20
35 40 35 45 0 5 7 11 15 15 8 3 15 11 15 19 0 7 10 23 23 34 33 31 67 73 67
84 0 5 7 9 15 9 8 0 15 4 15 9 0 4 27 36 60 69 33 34 60 63 60 66 0 6 338 346
344 346 3 0 24 18 46 40 22 22 43 40 45 40 11 0 45 36 45 47 0 7 4 13 10 13
12 0 34 18 108 88 31 28 62 52 68 52 7 0 14 7 18 15 3 8 10 15 17 15 10 0 34
20 95 76 13 12 26 19 29 15 4 -3 17 6 28 20 12 14 45 41 72 60 28 19 52 37 53
42 2 4 8 7 13 7 11 0 113 71 117 82 2 5 9 8 17 8 7 0 18 7 25 15 7 8 19 15 27
15 8 0 29 11 47 25 40 33 47 37 82 56 46 24 79 44 84 49 10 10 50 30 61 30 11
0 82 50 87 63 2 4 8 5 12 2 10 -6 80 29 89 44 4 5 18 11 32 13 14 2 37 13 52
24 14 12 41 27 59 34 18 7 56 23 84 36 28 13 58 24 66 24 9 0 21 7 28 15 7 8
19 15 26 15 8 0 22 4 32 9 39 21 91 41 105 41 9 0 19 5 22 11 4 5 12 8 18 6 7
-2 24 4 39 15 15 10 33 18 40 17 7 -1 29 5 48 14 19 8 38 13 42 11 5 -3 8 -1
8 3 0 9 57 33 93 38 39 7 94 22 108 31 8 5 17 9 22 10 4 1 10 3 15 4 4 1 15 2
25 1 9 -1 17 3 17 9 0 7 7 9 16 6 9 -4 28 1 41 9 13 9 28 13 33 10 6 -3 10 -1
10 5 0 8 9 10 24 6 14 -3 28 -1 31 4 4 6 11 7 17 4 6 -4 14 0 19 7 5 9 24 13
53 11 28 -1 46 3 46 9 0 6 7 9 15 5 8 -3 15 -1 15 3 0 5 15 9 33 9 17 0 61 7
97 16 36 8 83 17 105 20 133 16 155 20 155 28 0 6 6 8 13 5 8 -3 63 2 123 10
60 8 181 18 269 23 202 10 872 4 985 -10z m1770 -11400 c0 -5 -7 -7 -15 -4 -8
4 -15 8 -15 10 0 2 7 4 15 4 8 0 15 -4 15 -10z"/>
<path d="M16426 12401 c-4 -5 -13 -8 -20 -5 -8 3 -17 0 -21 -5 -3 -6 -11 -9
-16 -5 -5 3 -17 0 -25 -7 -9 -7 -25 -14 -36 -14 -11 -1 -25 -9 -30 -18 -5 -10
-14 -17 -19 -17 -6 0 -30 -16 -53 -35 -24 -19 -46 -35 -50 -35 -9 0 -50 -48
-89 -104 -16 -23 -35 -45 -41 -51 -19 -15 -76 -180 -92 -263 -18 -94 -18 -158
1 -252 14 -75 41 -166 55 -185 4 -5 10 -22 14 -38 4 -15 14 -35 24 -45 9 -10
30 -34 45 -55 35 -47 125 -137 136 -137 5 0 19 -11 32 -25 13 -13 30 -25 37
-25 7 0 20 -4 30 -9 28 -16 56 -24 70 -22 6 1 12 -2 12 -6 0 -11 14 -12 143
-14 57 -1 110 2 118 7 8 4 23 7 33 5 22 -3 96 28 96 41 0 5 8 7 19 3 12 -3 21
0 25 10 3 8 12 15 21 15 19 0 165 138 165 156 0 7 11 25 24 41 70 84 126 274
126 427 -1 168 -65 355 -154 449 -20 21 -36 42 -36 46 0 12 -118 103 -168 129
-24 13 -54 25 -66 26 -12 1 -28 6 -36 12 -22 13 -266 18 -274 5z"/>
<path d="M10777 12113 c-2 -4 -4 -39 -3 -78 1 -48 5 -70 14 -71 6 -1 13 -2 15
-3 1 -1 38 -3 82 -6 103 -6 220 -24 268 -41 21 -8 42 -12 47 -9 5 3 12 0 15
-6 4 -6 18 -8 30 -5 13 3 26 2 30 -4 3 -5 12 -7 20 -3 8 3 15 1 15 -4 0 -6 19
-15 43 -22 23 -7 50 -17 60 -22 10 -5 22 -7 28 -3 5 3 15 1 22 -4 7 -6 42 -21
78 -35 36 -14 75 -29 85 -35 10 -5 33 -16 49 -23 17 -8 32 -16 35 -20 12 -13
111 -49 120 -44 6 3 10 -4 10 -16 0 -12 3 -19 6 -16 4 3 18 -3 32 -13 13 -11
29 -20 34 -20 8 0 67 -38 78 -51 3 -3 24 -16 48 -29 23 -13 42 -27 42 -32 0
-4 6 -8 14 -8 8 0 16 -7 20 -15 3 -8 12 -15 21 -15 8 0 15 -4 15 -10 0 -5 7
-10 14 -10 8 0 27 -16 42 -35 15 -20 29 -34 31 -31 2 2 19 -11 37 -30 18 -19
36 -34 40 -34 10 0 257 -250 321 -325 83 -97 93 -108 140 -166 25 -31 45 -60
45 -64 0 -5 17 -29 38 -54 21 -25 64 -89 96 -141 32 -52 62 -97 66 -100 4 -3
13 -22 19 -42 7 -21 17 -38 22 -38 5 0 9 -6 9 -12 0 -7 20 -53 44 -103 57
-117 96 -209 96 -227 0 -7 9 -32 20 -53 31 -60 65 -166 99 -305 90 -377 107
-526 106 -942 -2 -321 -24 -533 -80 -758 -8 -30 -21 -86 -30 -125 -9 -38 -25
-99 -36 -135 -17 -59 -26 -82 -64 -175 -7 -16 -21 -52 -30 -80 -10 -27 -25
-58 -33 -67 -8 -10 -12 -18 -9 -18 4 0 -14 -39 -38 -87 -25 -48 -45 -95 -45
-105 0 -10 -3 -18 -7 -18 -5 0 -24 -29 -42 -65 -19 -36 -39 -65 -43 -65 -4 0
-8 -7 -8 -15 0 -8 -4 -15 -10 -15 -5 0 -10 -6 -10 -13 0 -13 -126 -192 -245
-351 -25 -33 -45 -63 -45 -67 0 -4 -8 -10 -18 -14 -11 -3 -34 -26 -52 -51 -36
-51 -215 -234 -228 -234 -5 0 -23 -18 -41 -41 -18 -22 -44 -44 -57 -49 -13 -5
-24 -14 -24 -19 0 -12 -229 -180 -295 -216 -27 -15 -62 -36 -77 -46 -14 -11
-31 -19 -36 -19 -6 0 -12 -4 -14 -9 -3 -7 -231 -121 -288 -144 -14 -5 -38 -16
-53 -24 -15 -8 -34 -12 -42 -9 -7 2 -19 -2 -25 -9 -7 -8 -16 -12 -21 -9 -5 2
-27 -4 -50 -15 -23 -11 -46 -18 -50 -15 -5 3 -9 0 -9 -6 0 -7 -8 -9 -19 -5
-11 3 -22 1 -26 -5 -3 -6 -11 -8 -16 -4 -5 3 -16 0 -24 -6 -8 -6 -18 -10 -22
-7 -4 3 -19 0 -33 -5 -14 -6 -41 -12 -60 -14 -19 -2 -36 -8 -38 -13 -2 -5 -25
-7 -52 -5 -28 2 -50 0 -50 -5 0 -4 -27 -7 -60 -6 l-60 1 0 -75 0 -76 30 0 c17
0 30 3 30 6 0 8 163 33 208 32 17 0 32 4 32 9 0 6 11 7 25 4 16 -4 25 -2 25 5
0 6 7 9 15 6 8 -4 17 -2 20 3 3 5 12 7 20 3 8 -3 15 0 15 6 0 6 7 8 15 5 8 -4
15 -1 15 5 0 6 6 8 14 5 8 -3 17 -1 20 4 3 6 16 8 27 5 14 -4 25 0 31 11 6 11
16 15 28 11 10 -3 21 -1 25 5 3 6 11 8 16 5 5 -4 9 -1 9 5 0 6 4 8 10 5 5 -3
20 1 32 9 12 9 32 16 43 16 12 0 25 4 30 8 6 5 35 19 65 31 30 13 78 33 105
46 28 13 65 30 83 37 17 7 32 17 32 21 0 4 17 15 38 24 20 8 53 28 73 44 20
16 44 29 53 29 8 0 31 14 49 30 19 17 40 30 46 30 6 0 11 5 11 10 0 6 7 10 15
10 9 0 18 6 21 14 3 8 13 16 22 18 30 8 36 12 96 71 33 31 63 57 66 57 19 0
360 333 360 351 0 5 12 22 28 38 47 51 72 82 72 92 0 5 6 9 13 9 6 0 34 30 62
68 27 37 53 69 57 70 4 2 8 9 8 15 0 7 19 38 43 69 23 32 70 104 105 160 34
57 67 110 72 118 16 26 147 303 168 355 11 28 34 85 51 127 17 43 30 81 30 85
-3 15 14 74 22 79 5 3 9 16 9 30 0 14 5 34 10 45 6 10 14 38 19 61 5 24 20 90
34 148 84 345 100 952 37 1385 -18 122 -105 484 -130 540 -5 11 -25 65 -44
120 -19 55 -44 123 -57 150 -12 28 -23 56 -25 62 -1 7 -16 35 -33 63 -17 28
-31 54 -31 59 0 14 -82 175 -97 190 -8 7 -27 39 -43 71 -16 32 -34 62 -41 65
-6 4 -44 59 -86 121 -41 63 -83 120 -92 127 -9 6 -36 38 -60 70 -24 31 -48 57
-53 57 -5 0 -12 8 -15 18 -10 26 -211 242 -226 242 -3 0 -30 24 -59 53 -73 72
-138 128 -168 144 -13 8 -31 20 -40 28 -8 8 -25 23 -37 35 -13 11 -27 20 -33
20 -5 0 -10 5 -10 10 0 6 -6 10 -14 10 -8 0 -28 11 -44 25 -17 14 -33 25 -36
25 -4 0 -12 5 -19 10 -60 50 -411 230 -449 230 -8 0 -23 7 -34 15 -10 8 -25
15 -32 15 -7 0 -34 9 -59 21 -25 11 -47 18 -51 15 -3 -3 -11 -1 -19 5 -7 6
-13 8 -13 4 0 -4 -11 0 -24 9 -14 9 -31 13 -39 10 -8 -3 -18 0 -22 5 -3 6 -11
9 -16 5 -5 -3 -15 -1 -22 4 -7 5 -36 13 -64 17 -29 4 -56 11 -59 16 -3 5 -9 7
-13 4 -5 -2 -48 2 -97 9 -49 8 -118 17 -154 21 -36 4 -70 11 -77 17 -6 5 -13
5 -16 1z"/>
<path d="M16560 7020 c-8 -4 -51 -13 -95 -19 -61 -8 -98 -20 -158 -51 -43 -23
-83 -50 -90 -61 -6 -10 -17 -19 -23 -19 -14 0 -54 -43 -54 -58 0 -7 -5 -12
-10 -12 -13 0 -102 -135 -117 -176 -40 -111 -48 -166 -48 -324 0 -187 24 -280
102 -397 40 -61 155 -183 172 -183 5 0 23 -11 39 -25 27 -23 70 -44 82 -41 3
0 18 -7 33 -17 15 -10 32 -15 37 -12 5 3 11 1 14 -4 3 -5 15 -7 25 -4 10 3 21
0 25 -5 3 -5 25 -8 48 -6 24 2 68 5 98 7 30 3 72 12 94 21 21 9 42 13 47 10 5
-3 9 0 9 6 0 6 5 8 10 5 6 -3 10 -1 10 4 0 6 7 11 15 11 8 0 24 9 35 20 11 11
29 20 40 20 10 0 24 9 30 20 6 11 16 20 23 20 15 1 94 96 129 158 56 96 99
230 114 357 13 112 -37 320 -106 440 -32 57 -190 225 -211 225 -6 0 -23 8 -37
18 -43 30 -118 54 -185 59 -34 3 -66 9 -72 13 -5 4 -17 4 -25 0z"/>
<path d="M12201 5624 c0 -11 3 -14 6 -6 3 7 2 16 -1 19 -3 4 -6 -2 -5 -13z"/>
<path d="M13678 4783 c6 -2 18 -2 25 0 6 3 1 5 -13 5 -14 0 -19 -2 -12 -5z"/>
<path d="M24136 14885 c-27 -8 -60 -25 -73 -38 -47 -47 -66 -271 -30 -356 19
-45 75 -108 111 -125 19 -9 56 -16 84 -16 90 0 153 70 192 212 16 60 50 94 78
79 48 -26 39 -87 -24 -161 -53 -62 -56 -97 -12 -118 24 -11 34 -10 70 6 61 27
92 64 84 97 -4 15 1 57 10 95 13 56 14 77 4 123 -23 113 -108 196 -198 197
-82 0 -154 -63 -196 -175 -38 -98 -47 -114 -68 -121 -36 -11 -65 57 -49 114
15 50 29 69 81 106 50 36 61 61 38 84 -15 15 -39 14 -102 -3z"/>
<path d="M24081 14307 c-65 -33 -90 -132 -52 -210 26 -53 26 -53 1 -84 -44
-56 -5 -165 67 -187 18 -6 24 -2 29 18 7 29 2 28 141 30 75 1 97 5 120 22 91
66 92 271 2 366 -41 43 -51 46 -79 18 -32 -32 -25 -59 30 -110 72 -66 66 -93
-23 -102 -53 -6 -51 -9 -61 88 -12 121 -95 193 -175 151z m115 -192 c21 -32 8
-55 -31 -55 -32 0 -65 21 -65 41 0 5 9 18 19 28 24 24 56 18 77 -14z"/>
<path d="M24128 13766 c-55 -33 -79 -57 -99 -101 -29 -63 -22 -128 19 -177 18
-21 8 -50 -15 -46 -16 3 -18 -4 -15 -50 4 -68 32 -152 55 -166 15 -9 23 -6 42
17 l24 27 241 0 c264 0 245 -5 240 60 -3 45 -40 158 -59 181 -15 19 -21 21
-34 11 -8 -7 -18 -23 -21 -36 -4 -15 -15 -25 -30 -28 -41 -8 -48 4 -31 53 18
48 13 114 -10 160 -18 34 -80 88 -121 105 -51 21 -142 16 -186 -10z m197 -205
c35 -20 44 -60 20 -84 -13 -13 -35 -16 -111 -14 -82 2 -98 5 -110 21 -31 43
-6 86 57 99 38 8 111 -3 144 -22z"/>
<path d="M24040 12962 c-25 -20 -25 -23 -25 -171 0 -139 2 -152 21 -171 27
-27 48 -18 67 31 l15 39 81 0 c84 0 86 -1 81 -45 -3 -28 -14 -37 -51 -41 -30
-4 -48 -17 -49 -37 0 -21 55 -57 89 -59 127 -5 191 12 191 51 0 23 -16 36 -53
45 -25 6 -28 10 -25 44 l3 37 62 -1 c97 -2 96 -2 91 -90 -5 -72 -7 -77 -47
-118 -57 -58 -54 -91 9 -100 24 -4 49 2 80 17 l45 22 1 262 c1 242 0 264 -17
279 -23 21 -47 12 -55 -20 -9 -39 -58 -47 -236 -42 -84 3 -161 7 -172 9 -10 2
-32 20 -50 41 l-31 38 -25 -20z m545 -352 c3 -5 2 -10 -4 -10 -5 0 -13 5 -16
10 -3 6 -2 10 4 10 5 0 13 -4 16 -10z"/>
<path d="M24074 12354 c-62 -30 -84 -141 -43 -214 l22 -38 -22 -35 c-25 -41
-27 -77 -5 -123 17 -36 58 -74 79 -74 7 0 16 11 19 25 7 28 4 27 146 29 47 1
95 7 107 14 63 35 94 132 73 234 -14 76 -40 129 -76 157 -32 25 -47 26 -68 5
-29 -29 -19 -63 34 -115 42 -40 48 -52 41 -71 -8 -24 -37 -35 -86 -34 -29 1
-30 3 -36 61 -8 86 -25 130 -65 165 -39 34 -72 38 -120 14z m111 -178 c34 -34
24 -66 -20 -66 -58 0 -84 45 -43 74 30 21 35 20 63 -8z"/>
<path d="M24215 11842 c-155 -11 -247 -181 -186 -341 20 -54 63 -101 92 -101
22 0 52 28 45 44 -39 91 -29 151 31 186 69 41 153 19 153 -39 0 -29 -13 -40
-55 -48 -53 -9 -71 -83 -31 -129 48 -56 121 -30 169 61 30 56 29 172 -1 232
-46 89 -130 142 -217 135z m-175 -246 c0 -3 -4 -8 -10 -11 -5 -3 -10 -1 -10 4
0 6 5 11 10 11 6 0 10 -2 10 -4z"/>
<path d="M24179 11350 c-74 -21 -133 -75 -155 -143 -32 -95 -2 -225 63 -276
30 -25 51 -24 67 1 8 14 6 25 -9 50 -11 19 -19 52 -19 80 -1 41 4 52 31 79 54
54 63 39 61 -99 0 -66 2 -124 6 -130 13 -21 64 -24 105 -4 23 10 38 22 34 26
-4 4 -1 5 7 2 30 -11 90 105 90 175 0 49 -30 126 -63 162 -59 62 -153 96 -218
77z m201 -211 c0 -4 3 -14 6 -22 8 -21 -31 -57 -61 -57 -24 0 -25 3 -25 54 0
34 5 56 13 59 13 5 67 -23 67 -34z"/>
<path d="M13710 2920 c0 -5 5 -10 10 -10 6 0 10 5 10 10 0 6 -4 10 -10 10 -5
0 -10 -4 -10 -10z"/>
</g>
</svg>
